<svg width="139" height="35" viewBox="0 0 139 35" fill="none" xmlns="http://www.w3.org/2000/svg">
<path d="M19.7846 0C19.7846 0 22.6549 5.86903 22.1408 8.31089C22.1408 8.31089 29.6806 10.7528 30.4945 14.7797C30.4945 14.7368 34.6071 9.33904 19.7846 0ZM16.8715 8.78213C17.5998 10.3244 17.9425 11.9951 18.3709 13.7087L14.0869 12.0808C14.4725 9.46756 11.945 5.52632 11.945 5.52632L16.8715 8.78213ZM9.24607 12.8091C9.7173 14.0514 10.2742 15.6365 10.5313 17.0073L6.67569 16.0649C7.06125 13.4517 4.61938 10.3244 4.61938 10.3244L9.24607 12.8091Z" fill="#535C65"/>
<path d="M17.6855 6.55449C17.6855 6.55449 34.9498 18.6781 36.1065 23.3905C36.9633 26.9462 34.4786 30.202 34.4786 30.202C34.4786 30.202 33.1506 20.9486 0.0783691 35C3.41986 31.273 5.26197 26.4749 4.74789 21.3342C4.53369 19.235 4.01962 17.2216 3.11998 15.4223L10.874 19.4921C10.874 19.6206 10.874 19.7491 10.9168 19.8776C11.2167 23.0049 11.0025 26.0894 10.2742 28.9168C11.8593 25.5753 12.6304 21.7626 12.2448 17.8213C12.0306 15.4223 11.4309 13.1518 10.4884 11.0955L18.7565 16.6218C18.7993 16.8788 18.7993 17.1787 18.8421 17.4358C19.1849 20.9058 18.8421 24.2901 17.9425 27.3746C19.8703 23.776 20.8556 19.5777 20.4272 15.2509C20.1273 12.0808 19.1849 9.16771 17.6855 6.55449ZM38.7626 21.9768C38.7626 26.9462 42.8752 30.4162 48.1016 30.202C51.2289 30.0735 53.071 28.9168 53.7136 28.6169V24.3329H53.071C52.4713 26.9462 50.8862 29.131 48.1445 29.131C44.7601 29.131 42.1469 25.8323 42.1469 21.9768C42.1469 18.1212 44.803 14.8225 48.1445 14.8225C50.8862 14.8225 52.4713 16.9645 53.071 19.6206H53.7136V15.3366C53.071 15.0367 51.2289 13.9229 48.1016 13.7516C42.8752 13.5374 38.7626 17.0074 38.7626 21.9768ZM63.3954 13.7516C58.8115 13.7516 55.2558 17.4358 55.2558 22.0196C55.2558 26.5606 58.8115 30.2877 63.3954 30.2877C67.9792 30.2877 71.5349 26.6034 71.5349 22.0196C71.5349 17.4358 67.9792 13.7516 63.3954 13.7516ZM63.3954 29.2595C60.5251 29.2595 58.5973 25.8752 58.5973 21.9768C58.5973 18.1212 60.5251 14.694 63.3954 14.694C66.2656 14.694 68.1934 18.0784 68.1934 21.9768C68.1934 25.8323 66.2656 29.2595 63.3954 29.2595ZM90.213 17.1359C90.213 15.8079 91.5839 14.7369 92.9976 14.694C94.5398 14.694 96.082 15.3795 96.896 18.3782H97.3244V14.7797C96.6818 14.5655 95.1396 13.7516 92.9547 13.7516C90.2987 13.7516 87.6426 15.3795 87.6426 18.4211C87.6426 23.8617 95.0967 22.8336 95.0967 26.4749C95.0967 28.317 93.9829 29.1738 92.2693 29.1738C90.5986 29.1738 88.6708 27.803 88.0282 25.0612H87.4713V29.0025C88.1567 29.2167 89.9131 30.2448 92.1836 30.2448C96.1249 30.2448 98.0527 27.6316 98.0527 25.2754C98.0955 19.4492 90.213 21.2057 90.213 17.1359ZM119.858 15.7222C119.858 15.3795 120.072 15.0796 120.329 14.9082L121.357 14.3513V14.0943H115.231V14.3513L116.26 14.9082C116.559 15.0796 116.731 15.3795 116.731 15.7222V28.2742C116.731 28.6169 116.517 28.9168 116.26 29.0881L115.231 29.6451V29.9021H121.357V29.6451L120.329 29.0881C120.029 28.9168 119.858 28.6169 119.858 28.2742V15.7222ZM71.6634 14.0943V14.3513L72.6916 14.9082C72.9915 15.0796 73.1628 15.3795 73.1628 15.7222V28.2742C73.1628 28.6169 72.9486 28.9168 72.6916 29.0881L71.6634 29.6451V29.9021H77.7895V29.6451L76.7614 29.0881C76.4615 28.9168 76.2901 28.6169 76.2901 28.2742V15.7222C76.2901 15.508 76.3758 15.3366 76.4615 15.1653C76.5471 15.0367 76.6757 14.9939 76.847 14.9939H78.8176C80.0172 14.9939 81.3024 16.4076 81.3024 18.164V19.0637C81.3024 20.8201 80.1457 22.0196 78.8176 22.0196H77.6181C77.6181 22.0196 81.4737 28.6597 82.0735 29.388C82.9303 30.459 85.7577 31.8727 87.9425 31.4015C85.8005 30.2448 83.7871 26.5606 82.1163 23.4762C81.2167 23.3476 80.6169 23.0478 80.2314 22.7907C83.6157 22.7907 84.4725 20.0061 84.4725 18.6353C84.4725 14.9082 81.8593 14.1371 78.9033 14.1371H71.6634V14.0943ZM122.643 14.0943V14.3513L123.671 14.9082C123.971 15.0796 124.142 15.3795 124.142 15.7222V28.2742C124.142 28.6169 123.928 28.9168 123.671 29.0881L122.643 29.6451V29.9021H128.769V29.6451L127.741 29.0881C127.441 28.9168 127.269 28.6169 127.269 28.2742V15.7222C127.269 15.508 127.355 15.3366 127.441 15.1653C127.526 15.0367 127.655 14.9939 127.826 14.9939H129.797C130.996 14.9939 132.282 16.4076 132.282 18.164V19.0637C132.282 20.8201 131.125 22.0196 129.797 22.0196H128.597C128.597 22.0196 132.453 28.6597 133.053 29.388C133.909 30.459 136.737 31.8727 138.922 31.4015C136.78 30.2448 134.766 26.5606 133.096 23.4762C132.196 23.3476 131.596 23.0478 131.211 22.7907C134.595 22.7907 135.452 20.0061 135.452 18.6353C135.452 14.9082 132.838 14.1371 129.883 14.1371H122.643V14.0943ZM113.389 29.0881C113.175 28.9596 113.047 28.7883 112.961 28.6169L107.135 14.0943H105.25L99.4235 28.6169C99.3378 28.8311 99.2093 29.0025 98.9951 29.0881L97.967 29.6451V29.9021H102.679V29.6451L101.78 29.1738C101.48 29.0025 101.266 28.7026 101.266 28.317C101.266 28.1885 101.308 28.06 101.351 27.9743L102.636 24.8042H108.12L109.405 27.9743C109.448 28.06 109.448 28.1885 109.448 28.2742C109.448 28.5741 109.319 28.8311 109.105 29.0025C109.062 29.0453 109.02 29.0453 108.977 29.0881L107.949 29.6451V29.9021H114.417V29.6451L113.389 29.0881ZM103.022 23.6475L105.293 17.9927L107.563 23.6475H103.022Z" fill="#535C65"/>
</svg>
