<svg width="126" height="19" viewBox="0 0 126 19" fill="none" xmlns="http://www.w3.org/2000/svg">
<path d="M79.783 0V2.09036H91.8733L93.0781 0H79.783Z" fill="#535C65"/>
<path d="M79.783 8.45181V10.5422H91.8733L93.0781 8.45181H79.783Z" fill="#535C65"/>
<path d="M79.783 16.9036V18.994H91.8733L93.0781 16.9036H79.783Z" fill="#535C65"/>
<path d="M119.675 5.88556V4.68076C119.675 4.06608 119.554 3.45741 119.318 2.88952C119.083 2.32163 118.738 1.80562 118.304 1.37097C117.869 0.936324 117.353 0.591538 116.785 0.356309C116.217 0.12108 115.609 1.49494e-07 114.994 0H106.374V19H108.464V10.5663H112.38L117.259 19H119.669L114.789 10.5663H114.988C115.603 10.5671 116.212 10.4466 116.781 10.2117C117.35 9.97684 117.866 9.6322 118.302 9.19747C118.737 8.76275 119.082 8.24647 119.318 7.67819C119.553 7.1099 119.675 6.50075 119.675 5.88556ZM108.464 2.0904H114.994C115.681 2.09199 116.338 2.36541 116.824 2.85085C117.309 3.3363 117.583 3.99424 117.584 4.68076V5.88556C117.583 6.57208 117.309 7.23002 116.824 7.71547C116.338 8.20091 115.681 8.47433 114.994 8.47592H108.464V2.0904Z" fill="#535C65"/>
<path d="M13.3012 5.88556V4.68076C13.3012 4.06608 13.1801 3.45741 12.9449 2.88952C12.7097 2.32163 12.3649 1.80562 11.9302 1.37097C11.4956 0.936323 10.9796 0.591538 10.4117 0.356309C9.84381 0.12108 9.23515 -1.19603e-07 8.62047 0H0V19H2.09036V10.5663H6.02409L10.9036 19H13.3132L8.43372 10.5663H8.63251C9.87183 10.5631 11.0593 10.0685 11.9345 9.19108C12.8097 8.31362 13.3012 7.12488 13.3012 5.88556H13.3012ZM2.09036 2.0904H8.62047C9.30699 2.09199 9.96493 2.36541 10.4504 2.85085C10.9358 3.3363 11.2092 3.99424 11.2108 4.68076V5.88556C11.2092 6.57208 10.9358 7.23002 10.4504 7.71547C9.96493 8.20091 9.30699 8.47433 8.62047 8.47592H2.09036V2.0904Z" fill="#535C65"/>
<path d="M33.2108 5.57831L38.6325 18.9939H40.8855L34.3373 2.78915L33.2108 0L32.0843 2.78915L25.5361 18.9939H27.7891L33.2108 5.57831Z" fill="#535C65"/>
<path d="M121.343 0H122.675V0.265078H122.163V1.84339H121.861V0.265078H121.343V0Z" fill="#535C65"/>
<path d="M123.187 0.00602722H123.699L124.096 1.44579L124.506 0.00602722H125.024V1.84337H124.729V0.331312H124.699L124.265 1.77111H123.958L123.494 0.331312V1.84337H123.199L123.187 0.00602722Z" fill="#535C65"/>
<path d="M53.1865 0V2.09036H62.9516L54.3974 16.9036L53.1865 18.9939H55.6022H65.3552L66.56 16.9036H56.807L65.3612 2.09036L66.566 0H64.1564H53.1865Z" fill="#535C65"/>
<path d="M79.783 0V2.09036H91.8733L93.0781 0H79.783Z" fill="#535C65"/>
<path d="M79.783 8.45181V10.5422H91.8733L93.0781 8.45181H79.783Z" fill="#535C65"/>
<path d="M79.783 16.9036V18.994H91.8733L93.0781 16.9036H79.783Z" fill="#535C65"/>
<path d="M33.2108 5.57831L38.6325 18.9939H40.8855L34.3373 2.78915L33.2108 0L32.0843 2.78915L25.5361 18.9939H27.7891L33.2108 5.57831Z" fill="#535C65"/>
</svg>
