<svg width="136" height="27" viewBox="0 0 136 27" fill="none" xmlns="http://www.w3.org/2000/svg">
<path d="M98.6609 0.426056H112.615L126.39 19.9376H127.176L126.991 0.426056H135.09V26.5835H121.254L107.479 7.06719H106.571L106.755 26.5835H98.6609V0.426056Z" fill="#535C65"/>
<path d="M68.0867 0.426056H68.6311H97.089V6.58437H75.9396V10.3286H96.0003V16.1319H75.9396V20.2974H97.2073V26.5835H68.0867V1.51003L55.8269 26.5835H43.5623L30.6304 0.426056H39.3921L48.9349 19.9944H50.4449L59.8693 0.426056H68.0867Z" fill="#535C65"/>
<path d="M0 17.9448H7.72984C7.72984 19.2134 7.97125 20.0607 8.5156 20.4204C8.88008 20.6665 9.3629 20.7849 9.96406 20.8464C10.5699 20.908 12.5012 20.908 15.7626 20.9648C19.0855 20.9648 21.1399 20.908 21.8026 20.908C22.5268 20.8464 23.0096 20.7849 23.4357 20.605C24.0415 20.3589 24.3445 19.6962 24.3445 18.6122C24.3445 17.8264 24.0983 17.3436 23.6771 17.0407C23.2558 16.7993 22.4085 16.6809 21.1399 16.6194C20.1695 16.6194 18.0584 16.5579 14.9153 16.3732C11.6539 16.2549 9.48124 16.1318 8.51087 16.1318C6.57959 16.0703 5.1264 15.8904 4.09923 15.5875C3.07205 15.2845 2.28629 14.8017 1.68513 14.0775C0.719495 12.9888 0.231942 11.1143 0.231942 8.4588C0.231942 5.49562 0.776297 3.44127 1.92654 2.17742C2.77384 1.26858 4.09923 0.667426 5.85063 0.364481C7.6115 0.123072 11.2374 0 16.733 0C20.5387 0 23.2605 0.123072 24.8273 0.302945C27.2414 0.667426 28.8745 1.33012 29.7786 2.29576C30.6874 3.32293 31.1087 5.0128 31.1087 7.43163C31.1087 7.61623 31.1087 8.03752 31.1087 8.63867H23.3836C23.3221 7.91918 23.2652 7.43163 23.2037 7.12868C23.0854 6.88727 22.9008 6.64586 22.5978 6.46599C22.2949 6.28611 21.6937 6.16778 20.7849 6.10151C19.9376 6.04471 18.0678 5.98317 15.2845 5.98317C11.9048 5.98317 9.78892 6.10151 9.05996 6.34292C8.33573 6.52279 7.97125 7.12868 7.97125 8.09432C7.97125 9.00316 8.33099 9.54278 9.05996 9.78419C9.66585 9.90252 12.506 10.0871 17.5188 10.267C21.7505 10.3901 24.5859 10.5084 26.0391 10.693C27.4307 10.8729 28.5763 11.1758 29.4236 11.6587C30.3892 12.2646 31.0566 13.0503 31.4779 14.0775C31.8377 15.0431 32.0838 16.4916 32.0838 18.3661C32.0838 20.8417 31.724 22.7162 31.0566 23.8617C30.5738 24.7658 29.8496 25.4332 29.0023 25.8545C28.0982 26.2758 26.8296 26.5787 25.2581 26.7586C23.5067 26.8817 20.3021 27 15.5922 27C11.6634 27 8.70494 26.8817 6.83047 26.6971C4.96073 26.4556 3.56907 26.0912 2.60344 25.5515C1.6378 25.0025 0.913569 24.283 0.549088 23.3741C0.179874 22.418 0 21.0216 0 19.1518V17.9448Z" fill="#535C65"/>
</svg>
