<svg width="122" height="26" viewBox="0 0 122 26" fill="none" xmlns="http://www.w3.org/2000/svg">
<path d="M116.821 3.29268C116.821 1.80488 117.934 0.585366 119.297 0.585366C119.956 0.585366 120.569 0.878049 121.046 1.36585C121.523 1.87805 121.773 2.56098 121.773 3.26829C121.773 3.97561 121.523 4.65854 121.046 5.17073C120.569 5.68293 119.956 5.97561 119.297 5.97561C117.934 5.97561 116.821 4.78049 116.821 3.29268ZM116.617 3.29268C116.617 4.90244 117.821 6.21951 119.32 6.21951C120.047 6.21951 120.705 5.92683 121.205 5.36585C121.705 4.80488 122 4.07317 122 3.29268C122 2.5122 121.727 1.78049 121.205 1.21951C120.683 0.658537 120.024 0.365854 119.32 0.365854C117.821 0.365854 116.617 1.68293 116.617 3.29268ZM118.298 5.02439H118.684V3.65854H119.547C119.683 3.65854 119.797 3.65854 119.888 3.70732C120.001 3.78049 120.069 3.92683 120.092 4.12195L120.137 4.65854C120.137 4.78049 120.137 4.85366 120.137 4.90244C120.16 4.95122 120.16 4.97561 120.183 5H120.66V4.92683C120.592 4.90244 120.569 4.82927 120.546 4.73171C120.524 4.68293 120.524 4.58537 120.524 4.46341L120.501 4.04878C120.501 3.85366 120.455 3.73171 120.41 3.65854C120.342 3.58537 120.251 3.5122 120.137 3.46341C120.274 3.39024 120.365 3.29268 120.433 3.17073C120.501 3.04878 120.524 2.90244 120.524 2.70732C120.524 2.34146 120.387 2.09756 120.137 1.95122C120.001 1.87805 119.819 1.85366 119.615 1.85366H118.32L118.298 5.02439ZM118.661 3.29268V2.19512H119.57C119.706 2.19512 119.819 2.21951 119.888 2.26829C120.024 2.34146 120.092 2.5122 120.092 2.73171C120.092 2.95122 120.047 3.09756 119.933 3.17073C119.842 3.2439 119.706 3.29268 119.524 3.29268H118.661ZM11.0393 7.31707L0 25.9512H7.54124L18.1717 8.14634L11.0393 7.31707ZM56.4912 6.90244V0H35.0259C32.0957 0.195122 30.8237 1.70732 29.8697 2.78049C28.8475 3.92683 28.2797 6.34146 28.2797 6.34146V0.0487805H16.8542C15.9911 0.0487805 15.1733 0.439024 14.56 1.36585C13.924 2.26829 11.3119 6.90244 11.3119 6.90244H56.4912ZM114.868 6.90244V0H91.9032C88.9957 0.195122 87.701 1.70732 86.747 2.78049C85.7248 3.92683 85.157 6.34146 85.157 6.34146V6.90244H114.868ZM64.0324 0.0243902H57.6042V6.90244H64.0324V0.0243902ZM85.0888 0.0243902H78.6833V6.90244H85.0888V0.0243902ZM85.0888 9.39024L78.7742 8.97561V16.9512C78.7742 16.9512 78.7514 19.2439 76.6844 19.2439H65.8723C65.8723 19.2439 64.0324 19.0732 64.0324 16.9756V7.90244L57.6723 7.41463V19.6341C58.6945 25.4878 63.6235 25.9512 63.6235 25.9512C63.6235 25.9512 64.1233 25.9756 64.2141 26H78.865C78.865 26 85.1342 25.4634 85.1342 18.9756L85.0888 9.39024ZM21.7379 25.9512H51.7665C56.9909 24.8293 57.536 19.7073 57.536 19.7073C57.7859 18.1951 57.6496 16.9512 57.6496 16.9512C57.4906 15.9268 55.6734 11.3902 51.7665 11C49.4269 10.7561 28.5977 8.97561 28.5977 8.97561C29.0065 11.2195 29.9378 12.3659 30.5738 13C32.0276 14.4878 34.3217 14.9268 34.3217 14.9268C34.8669 14.9756 50.3809 16.3659 50.3809 16.3659C50.8807 16.3902 51.812 16.5366 51.7892 17.8537C51.7892 18.0244 51.653 19.1707 50.4718 19.1707H28.0071V8.92683L21.7606 8.43902C21.7379 8.43902 21.7379 25.9512 21.7379 25.9512ZM85.1342 26H108.121C113.891 25.6341 114.709 19.7561 114.709 19.7561C114.913 18.2195 114.754 16.9512 114.754 16.9512C114.595 15.561 112.755 11.3659 108.826 10.9512C106.509 10.7073 85.5431 9.39024 85.5431 9.39024C86.1564 11.7073 86.9968 12.4146 87.6328 13.0488C89.0866 14.561 91.2445 14.9024 91.2445 14.9024C91.7896 14.9512 107.463 16.3659 107.463 16.3659C107.962 16.3902 108.985 16.439 108.985 17.7561C108.985 18.1463 108.803 18.561 108.576 18.7805C108.576 18.7805 108.031 19.0976 107.508 19.0976H85.2024L85.1342 26Z" fill="#535C65"/>
</svg>
