<svg xmlns="http://www.w3.org/2000/svg" width="70px" height="67px" viewBox="0 0 70 67">
<path fill-rule="evenodd" fill="#f13724" d="M63.567,62.402 C56.885,66.877 47.814,65.128 43.306,58.495 L28.694,66.867 C28.387,67.044 28.009,67.044 27.702,66.867 L0.496,51.277 C0.189,51.102 -0.000,50.777 -0.000,50.424 L-0.000,16.543 C-0.000,16.184 0.197,15.854 0.514,15.681 L27.702,0.100 C28.009,-0.075 28.387,-0.075 28.694,0.100 L55.894,15.688 C56.203,15.863 56.394,16.190 56.395,16.543 L56.395,35.940 C60.887,36.243 64.985,38.587 67.503,42.291 C72.011,48.923 70.249,57.928 63.567,62.402 ZM1.984,49.857 L27.206,64.310 L27.206,32.700 L19.696,28.379 L19.696,47.897 C19.690,48.309 19.429,48.676 19.039,48.818 C18.923,48.861 18.799,48.882 18.675,48.882 C18.390,48.882 18.118,48.761 17.929,48.548 L14.804,45.025 L12.161,46.107 C12.046,46.153 11.924,46.178 11.800,46.180 C11.241,46.191 10.780,45.751 10.769,45.197 L10.769,23.297 L1.984,18.246 L1.984,49.857 ZM17.712,45.289 L17.712,27.243 L12.753,24.433 L12.753,43.725 L14.698,42.937 C15.097,42.776 15.554,42.880 15.842,43.197 L17.712,45.289 ZM28.198,2.090 L2.979,16.542 L11.790,21.593 L37.010,7.139 L28.198,2.090 ZM38.994,8.276 L13.774,22.730 L18.724,25.565 L43.944,11.114 L38.994,8.276 ZM45.928,12.251 L20.708,26.702 L28.198,30.995 L53.417,16.541 L45.928,12.251 ZM54.412,18.246 L29.190,32.700 L29.190,64.310 L42.309,56.793 C41.470,55.101 40.972,53.263 40.843,51.381 C40.294,43.398 46.369,36.485 54.412,35.940 L54.412,18.246 ZM55.404,37.875 C48.439,37.875 42.792,43.479 42.792,50.392 C42.792,57.306 48.439,62.910 55.404,62.910 C62.358,62.885 67.990,57.295 68.015,50.392 C68.015,43.479 62.368,37.875 55.404,37.875 ZM52.940,54.978 C52.522,55.316 51.909,55.261 51.560,54.854 L48.272,51.032 C48.269,51.028 48.266,51.024 48.263,51.021 C47.910,50.605 47.964,49.984 48.384,49.634 C48.803,49.284 49.428,49.338 49.781,49.754 L52.440,52.845 L61.154,45.807 L61.153,45.807 C61.156,45.805 61.160,45.802 61.163,45.800 C61.590,45.460 62.214,45.527 62.557,45.951 C62.900,46.375 62.832,46.994 62.405,47.334 L52.940,54.978 ZM39.035,36.794 C38.639,37.161 38.018,37.141 37.647,36.748 L36.841,35.883 L36.841,45.780 C36.841,46.323 36.397,46.764 35.849,46.764 C35.302,46.764 34.858,46.323 34.858,45.780 L34.858,37.316 L34.311,38.293 C34.131,38.614 33.790,38.812 33.420,38.812 L33.420,38.811 C33.256,38.811 33.095,38.771 32.951,38.694 C32.469,38.436 32.288,37.839 32.548,37.360 L34.942,32.938 C34.992,32.846 35.057,32.762 35.134,32.689 C35.533,32.315 36.162,32.333 36.539,32.729 L39.077,35.396 C39.077,35.396 39.078,35.396 39.078,35.396 C39.455,35.791 39.438,36.413 39.041,36.788 C39.039,36.790 39.037,36.791 39.035,36.794 ZM33.337,49.781 L37.856,47.192 C38.330,46.920 38.937,47.082 39.211,47.553 C39.485,48.023 39.322,48.626 38.848,48.897 L34.329,51.487 C33.855,51.759 33.248,51.597 32.974,51.127 C32.700,50.656 32.863,50.054 33.337,49.781 ZM8.502,53.034 C7.954,53.034 7.510,52.592 7.510,52.049 L7.510,48.765 C7.510,48.221 7.954,47.780 8.502,47.780 C9.050,47.780 9.494,48.221 9.494,48.765 L9.494,52.049 C9.494,52.592 9.050,53.034 8.502,53.034 ZM4.534,50.694 C3.986,50.694 3.542,50.254 3.542,49.710 L3.542,46.065 C3.542,45.521 3.986,45.080 4.534,45.080 C5.082,45.080 5.526,45.521 5.526,46.065 L5.526,49.710 C5.526,50.254 5.082,50.694 4.534,50.694 ZM12.611,50.481 C13.159,50.481 13.603,50.921 13.603,51.466 L13.603,54.357 C13.603,54.901 13.159,55.342 12.611,55.342 C12.063,55.342 11.619,54.901 11.619,54.357 L11.619,51.466 C11.619,50.921 12.063,50.481 12.611,50.481 ZM16.579,53.181 C17.126,53.181 17.570,53.622 17.570,54.166 L17.570,56.665 C17.570,57.209 17.126,57.650 16.579,57.650 C16.031,57.650 15.587,57.209 15.587,56.665 L15.587,54.166 C15.587,53.622 16.031,53.181 16.579,53.181 ZM20.688,55.882 C21.236,55.882 21.680,56.323 21.680,56.866 L21.680,59.027 C21.680,59.570 21.236,60.012 20.688,60.012 C20.140,60.012 19.696,59.570 19.696,59.027 L19.696,56.866 C19.696,56.323 20.140,55.882 20.688,55.882 Z"/>
</svg>
