<svg xmlns="http://www.w3.org/2000/svg" width="67px" height="60px" viewBox="0 0 67 60">
<path fill-rule="evenodd" fill="#f13724" d="M61.605,47.517 L42.683,47.517 L42.683,58.217 L47.604,58.217 C48.095,58.217 48.494,58.616 48.494,59.109 C48.494,59.601 48.095,60.000 47.604,60.000 L20.176,60.000 C19.684,60.000 19.286,59.601 19.286,59.109 C19.286,58.616 19.684,58.217 20.176,58.217 L24.317,58.217 L24.317,47.517 L5.395,47.517 C2.417,47.513 0.003,45.095 0.000,42.109 L0.000,5.408 C0.003,2.422 2.417,0.003 5.395,-0.000 L61.605,-0.000 C64.583,0.003 66.996,2.422 67.000,5.408 L67.000,42.109 C66.996,45.094 64.583,47.513 61.605,47.517 ZM26.096,58.217 L40.904,58.217 L40.904,47.517 L26.096,47.517 L26.096,58.217 ZM65.221,5.408 C65.219,3.407 63.602,1.785 61.606,1.782 L5.395,1.782 C3.399,1.785 1.781,3.406 1.779,5.408 L1.779,37.517 C1.887,37.472 2.004,37.448 2.122,37.448 L64.878,37.448 C64.996,37.448 65.113,37.472 65.221,37.517 L65.221,5.408 ZM65.221,39.162 C65.113,39.208 64.996,39.231 64.878,39.231 L2.122,39.231 C2.004,39.231 1.887,39.208 1.779,39.162 L1.779,42.109 C1.781,44.110 3.399,45.732 5.395,45.734 L61.605,45.734 C63.601,45.732 65.219,44.110 65.221,42.109 L65.221,39.162 ZM61.012,28.810 L42.905,28.810 C41.048,32.287 37.434,34.456 33.500,34.456 C29.566,34.456 25.952,32.287 24.095,28.810 L5.988,28.810 C5.138,28.809 4.448,28.118 4.447,27.265 L4.447,20.252 C4.448,19.398 5.138,18.707 5.988,18.706 L24.095,18.706 C25.952,15.230 29.566,13.060 33.500,13.060 C37.434,13.060 41.048,15.230 42.905,18.706 L61.012,18.706 C61.862,18.707 62.552,19.398 62.553,20.252 L62.553,27.265 C62.552,28.118 61.862,28.809 61.012,28.810 ZM23.339,20.489 L6.226,20.489 L6.226,27.027 L23.339,27.027 C22.657,24.901 22.657,22.614 23.339,20.489 ZM33.500,14.843 C28.588,14.843 24.606,18.834 24.606,23.758 C24.606,28.682 28.588,32.672 33.500,32.672 C38.409,32.668 42.388,28.679 42.394,23.758 C42.394,18.834 38.412,14.843 33.500,14.843 ZM60.774,20.489 L43.661,20.489 C44.343,22.614 44.343,24.901 43.661,27.027 L60.774,27.027 L60.774,20.489 ZM49.309,22.084 C50.231,22.084 50.978,22.834 50.978,23.758 C50.978,24.682 50.231,25.432 49.309,25.432 C48.387,25.431 47.640,24.682 47.639,23.758 C47.639,22.834 48.387,22.084 49.309,22.084 ZM49.309,23.868 C49.369,23.868 49.418,23.819 49.418,23.758 C49.418,23.698 49.369,23.648 49.309,23.648 C49.249,23.649 49.200,23.698 49.200,23.758 C49.200,23.819 49.248,23.868 49.309,23.868 ZM57.213,22.084 C58.135,22.084 58.883,22.834 58.883,23.758 C58.883,24.682 58.135,25.432 57.213,25.432 C56.292,25.431 55.545,24.682 55.544,23.758 C55.544,22.834 56.291,22.084 57.213,22.084 ZM57.213,23.868 C57.274,23.868 57.323,23.819 57.323,23.758 C57.323,23.698 57.274,23.648 57.213,23.648 C57.153,23.648 57.104,23.698 57.104,23.758 C57.104,23.819 57.153,23.868 57.213,23.868 ZM32.997,27.020 C32.650,27.368 32.087,27.368 31.740,27.020 L28.754,24.027 C28.406,23.678 28.406,23.114 28.754,22.766 C29.101,22.417 29.664,22.417 30.011,22.766 L32.368,25.128 L36.989,20.497 L36.989,20.497 C37.213,20.269 37.543,20.179 37.851,20.260 C38.160,20.343 38.401,20.584 38.483,20.893 C38.565,21.203 38.475,21.533 38.247,21.758 L32.997,27.020 ZM17.691,25.432 C16.769,25.432 16.022,24.682 16.022,23.758 C16.022,22.834 16.769,22.084 17.691,22.084 C18.613,22.086 19.360,22.834 19.361,23.758 C19.361,24.682 18.613,25.432 17.691,25.432 ZM17.691,23.648 C17.631,23.648 17.582,23.698 17.582,23.758 C17.582,23.819 17.631,23.868 17.691,23.868 C17.751,23.868 17.800,23.819 17.800,23.758 C17.800,23.698 17.752,23.648 17.691,23.648 ZM9.787,25.432 C8.865,25.432 8.117,24.682 8.117,23.758 C8.117,22.834 8.865,22.084 9.787,22.084 C10.708,22.086 11.455,22.834 11.456,23.758 C11.456,24.682 10.709,25.432 9.787,25.432 ZM9.787,23.648 C9.726,23.648 9.677,23.698 9.677,23.758 C9.677,23.819 9.726,23.868 9.787,23.868 C9.847,23.868 9.896,23.819 9.896,23.758 C9.896,23.698 9.847,23.648 9.787,23.648 Z"/>
</svg>
