<svg width="79" height="16" viewBox="0 0 79 16" fill="#AEBCCA" xmlns="http://www.w3.org/2000/svg">
<path d="M57.6964 0.249146H65.8569L73.9122 11.6594H74.3717L74.2637 0.249146H79V15.5459H70.9087L62.8534 4.13285H62.3219L62.4299 15.5459H57.6964V0.249146Z"/>
<path d="M39.817 0.249146H40.1353H56.7774V3.8505H44.4093V6.0401H56.1407V9.43384H44.4093V11.8698H56.8466V15.5459H39.817V0.88305L32.6475 15.5459H25.4752L17.9127 0.249146H23.0365L28.6171 11.6926H29.5001L35.0115 0.249146H39.817Z"/>
<path d="M0 10.494H4.52038C4.52038 11.2359 4.66155 11.7314 4.97989 11.9418C5.19303 12.0857 5.47538 12.1549 5.82694 12.1909C6.18126 12.2269 7.31066 12.2269 9.21791 12.2601C11.1611 12.2601 12.3625 12.2269 12.7501 12.2269C13.1736 12.1909 13.4559 12.1549 13.7051 12.0497C14.0594 11.9058 14.2366 11.5182 14.2366 10.8843C14.2366 10.4248 14.0926 10.1425 13.8462 9.96531C13.5999 9.82414 13.1044 9.75493 12.3625 9.71895C11.7951 9.71895 10.5605 9.68296 8.72241 9.575C6.81516 9.5058 5.54459 9.43383 4.97712 9.43383C3.84772 9.39784 2.9979 9.29265 2.39721 9.11549C1.79652 8.93833 1.33701 8.65598 0.985458 8.23245C0.420758 7.59578 0.135639 6.4996 0.135639 4.94667C0.135639 3.21381 0.453975 2.01244 1.12663 1.27335C1.62213 0.741862 2.39721 0.390308 3.42142 0.213147C4.45117 0.0719717 6.57157 0 9.78538 0C12.011 0 13.6026 0.0719717 14.5189 0.177161C15.9307 0.390308 16.8857 0.777848 17.4144 1.34255C17.9459 1.94324 18.1922 2.93146 18.1922 4.34598C18.1922 4.45394 18.1922 4.7003 18.1922 5.05186H13.6746C13.6386 4.6311 13.6054 4.34598 13.5694 4.16882C13.5002 4.02765 13.3923 3.88647 13.2151 3.78128C13.0379 3.67609 12.6864 3.60689 12.1549 3.56814C11.6594 3.53492 10.566 3.49893 8.93833 3.49893C6.96188 3.49893 5.72452 3.56813 5.29822 3.70931C4.8747 3.8145 4.66155 4.16882 4.66155 4.73352C4.66155 5.26501 4.87193 5.58057 5.29822 5.72175C5.65255 5.79095 7.31343 5.89891 10.2449 6.0041C12.7196 6.07607 14.3777 6.14528 15.2275 6.25323C16.0414 6.35842 16.7113 6.53558 17.2068 6.81793C17.7715 7.17226 18.1618 7.63177 18.4081 8.23245C18.6185 8.79715 18.7625 9.64421 18.7625 10.7404C18.7625 12.1881 18.5521 13.2843 18.1618 13.9542C17.8794 14.4829 17.4559 14.8732 16.9604 15.1196C16.4317 15.366 15.6898 15.5431 14.7708 15.6483C13.7466 15.7203 11.8726 15.7895 9.11826 15.7895C6.8207 15.7895 5.09061 15.7203 3.99443 15.6123C2.90101 15.4711 2.08718 15.258 1.52248 14.9424C0.957777 14.6213 0.534251 14.2006 0.321104 13.6691C0.105189 13.1099 0 12.2933 0 11.1999V10.494Z"/>
</svg>
