<svg width="89" height="23" viewBox="0 0 89 23" fill="#AEBCCA" xmlns="http://www.w3.org/2000/svg">
<path d="M12.6319 0C12.6319 0 14.4717 3.76211 14.1422 5.32737C14.1422 5.32737 18.9753 6.89263 19.497 9.47393C19.497 9.44647 22.1333 5.98642 12.6319 0V0ZM10.7646 5.62944C11.2314 6.61802 11.4511 7.68898 11.7257 8.78741L8.97962 7.74391C9.22676 6.06881 7.60658 3.54242 7.60658 3.54242L10.7646 5.62944ZM5.87656 8.21074C6.17863 9.0071 6.53562 10.0231 6.70038 10.9019L4.22892 10.2977C4.47607 8.62265 2.91081 6.61802 2.91081 6.61802L5.87656 8.21074V8.21074Z"/>
<path d="M11.2863 4.20154C11.2863 4.20154 22.353 11.9729 23.0944 14.9936C23.6436 17.2728 22.0509 19.3598 22.0509 19.3598C22.0509 19.3598 21.1996 13.4283 0 22.4354C2.14193 20.0463 3.32274 16.9707 2.99321 13.6755C2.85591 12.3299 2.52638 11.0392 1.94971 9.88589L6.92009 12.4947C6.92009 12.577 6.92009 12.6594 6.94755 12.7418C7.13977 14.7464 7.00247 16.7236 6.53564 18.536C7.55168 16.3941 8.04597 13.9501 7.79883 11.4237C7.66152 9.88589 7.27707 8.43048 6.67294 7.11237L11.9728 10.6548C12.0003 10.8196 12.0003 11.0118 12.0278 11.1765C12.2475 13.4009 12.0278 15.5703 11.4511 17.5474C12.6868 15.2407 13.3184 12.5496 13.0438 9.77605C12.8516 7.74396 12.2475 5.87664 11.2863 4.20154V4.20154ZM24.797 14.0874C24.797 17.2728 27.4332 19.4971 30.7834 19.3598C32.788 19.2774 33.9688 18.536 34.3807 18.3438V15.5977H33.9688C33.5844 17.2728 32.5683 18.6733 30.8109 18.6733C28.6415 18.6733 26.9664 16.5588 26.9664 14.0874C26.9664 11.6159 28.6689 9.50144 30.8109 9.50144C32.5683 9.50144 33.5844 10.8745 33.9688 12.577H34.3807V9.83097C33.9688 9.63875 32.788 8.92477 30.7834 8.81493C27.4332 8.67763 24.797 10.9019 24.797 14.0874ZM40.5868 8.81493C37.6486 8.81493 35.3693 11.1765 35.3693 14.1148C35.3693 17.0257 37.6486 19.4147 40.5868 19.4147C43.5251 19.4147 45.8044 17.0531 45.8044 14.1148C45.8044 11.1765 43.5251 8.81493 40.5868 8.81493ZM40.5868 18.7557C38.747 18.7557 37.5113 16.5863 37.5113 14.0874C37.5113 11.6159 38.747 9.41906 40.5868 9.41906C42.4267 9.41906 43.6624 11.5885 43.6624 14.0874C43.6624 16.5588 42.4267 18.7557 40.5868 18.7557ZM57.7772 10.9843C57.7772 10.133 58.656 9.44652 59.5622 9.41906C60.5508 9.41906 61.5393 9.85843 62.0611 11.7807H62.3357V9.47398C61.9238 9.33668 60.9352 8.81493 59.5347 8.81493C57.8321 8.81493 56.1296 9.85843 56.1296 11.8081C56.1296 15.2956 60.9077 14.6366 60.9077 16.9707C60.9077 18.1516 60.1938 18.7008 59.0953 18.7008C58.0244 18.7008 56.7886 17.822 56.3767 16.0645H56.0197V18.5909C56.4591 18.7282 57.585 19.3873 59.0404 19.3873C61.5668 19.3873 62.8025 17.7122 62.8025 16.2018C62.83 12.4672 57.7772 13.5931 57.7772 10.9843V10.9843ZM76.78 10.0781C76.78 9.85843 76.9173 9.66621 77.0821 9.55637L77.7411 9.19938V9.03461H73.8142V9.19938L74.4733 9.55637C74.6655 9.66621 74.7754 9.85843 74.7754 10.0781V18.1241C74.7754 18.3438 74.6381 18.536 74.4733 18.6458L73.8142 19.0028V19.1676H77.7411V19.0028L77.0821 18.6458C76.8898 18.536 76.78 18.3438 76.78 18.1241V10.0781ZM45.8868 9.03461V9.19938L46.5458 9.55637C46.738 9.66621 46.8479 9.85843 46.8479 10.0781V18.1241C46.8479 18.3438 46.7106 18.536 46.5458 18.6458L45.8868 19.0028V19.1676H49.8136V19.0028L49.1546 18.6458C48.9624 18.536 48.8525 18.3438 48.8525 18.1241V10.0781C48.8525 9.94082 48.9074 9.83097 48.9624 9.72113C49.0173 9.63875 49.0997 9.61129 49.2095 9.61129H50.4727C51.2416 9.61129 52.0654 10.5175 52.0654 11.6434V12.2201C52.0654 13.3459 51.324 14.1148 50.4727 14.1148H49.7038C49.7038 14.1148 52.1752 18.3712 52.5597 18.8381C53.1089 19.5246 54.9213 20.4308 56.3218 20.1287C54.9488 19.3873 53.6581 17.0257 52.5872 15.0485C52.0105 14.9661 51.626 14.7739 51.3789 14.6091C53.5483 14.6091 54.0975 12.8242 54.0975 11.9454C54.0975 9.55637 52.4224 9.06207 50.5276 9.06207H45.8868V9.03461V9.03461ZM78.5649 9.03461V9.19938L79.224 9.55637C79.4162 9.66621 79.5261 9.85843 79.5261 10.0781V18.1241C79.5261 18.3438 79.3888 18.536 79.224 18.6458L78.5649 19.0028V19.1676H82.4918V19.0028L81.8328 18.6458C81.6405 18.536 81.5307 18.3438 81.5307 18.1241V10.0781C81.5307 9.94082 81.5856 9.83097 81.6405 9.72113C81.6955 9.63875 81.7778 9.61129 81.8877 9.61129H83.1509C83.9198 9.61129 84.7436 10.5175 84.7436 11.6434V12.2201C84.7436 13.3459 84.0022 14.1148 83.1509 14.1148H82.382C82.382 14.1148 84.8534 18.3712 85.2379 18.8381C85.7871 19.5246 87.5995 20.4308 89 20.1287C87.627 19.3873 86.3363 17.0257 85.2653 15.0485C84.6887 14.9661 84.3042 14.7739 84.0571 14.6091C86.2265 14.6091 86.7757 12.8242 86.7757 11.9454C86.7757 9.55637 85.1006 9.06207 83.2058 9.06207H78.5649V9.03461V9.03461ZM72.6334 18.6458C72.4961 18.5635 72.4138 18.4536 72.3588 18.3438L68.6242 9.03461H67.4159L63.6813 18.3438C63.6263 18.4811 63.544 18.5909 63.4067 18.6458L62.7476 19.0028V19.1676H65.7683V19.0028L65.1916 18.7008C64.9994 18.5909 64.8621 18.3987 64.8621 18.1516C64.8621 18.0692 64.8895 17.9868 64.917 17.9319L65.7408 15.8998H69.2558L70.0796 17.9319C70.1071 17.9868 70.1071 18.0692 70.1071 18.1241C70.1071 18.3163 70.0247 18.4811 69.8874 18.5909C69.8599 18.6184 69.8325 18.6184 69.805 18.6458L69.1459 19.0028V19.1676H73.2925V19.0028L72.6334 18.6458V18.6458ZM65.988 15.1583L67.4434 11.5335L68.8988 15.1583H65.988V15.1583Z"/>
</svg>
