<svg width="89" height="14" viewBox="0 0 89 14" fill="#AEBCCA" xmlns="http://www.w3.org/2000/svg">
<path d="M56.7946 0V1.48805H65.4013L66.259 0H56.7946Z"/>
<path d="M56.7946 6.01648V7.50453H65.4013L66.259 6.01648H56.7946Z"/>
<path d="M56.7946 12.0331V13.5211H65.4013L66.259 12.0331H56.7946Z"/>
<path d="M85.192 4.18972V3.33206C85.192 2.89449 85.1058 2.46121 84.9384 2.05695C84.7709 1.65268 84.5255 1.28535 84.2161 0.975944C83.9067 0.666535 83.5393 0.421095 83.1351 0.253644C82.7308 0.0861924 82.2975 1.0642e-07 81.86 0H75.7234V13.5254H77.2114V7.52176H79.9988L83.4724 13.5254H85.1877L81.7142 7.52176H81.8557C82.2936 7.52232 82.7273 7.43655 83.1321 7.26935C83.5369 7.10215 83.9047 6.85681 84.2145 6.54735C84.5244 6.23788 84.7702 5.87037 84.9379 5.46583C85.1057 5.06128 85.192 4.62765 85.192 4.18972V4.18972ZM77.2114 1.48808H81.86C82.3487 1.48921 82.817 1.68385 83.1626 2.02942C83.5082 2.37499 83.7028 2.84336 83.7039 3.33206V4.18972C83.7028 4.67842 83.5082 5.14679 83.1626 5.49236C82.817 5.83793 82.3487 6.03257 81.86 6.0337H77.2114V1.48808Z"/>
<path d="M9.46863 4.18972V3.33206C9.46863 2.89449 9.38245 2.46121 9.215 2.05695C9.04755 1.65268 8.80212 1.28535 8.49271 0.975944C8.1833 0.666535 7.81598 0.421095 7.41172 0.253644C7.00745 0.0861925 6.57417 -8.51409e-08 6.1366 0H0V13.5254H1.48805V7.52176H4.28833L7.76188 13.5254H9.47721L6.00366 7.52176H6.14517C7.0274 7.51949 7.87271 7.16743 8.49574 6.5428C9.11876 5.91816 9.46864 5.07195 9.46863 4.18972H9.46863ZM1.48805 1.48808H6.1366C6.62531 1.48921 7.09367 1.68385 7.43924 2.02942C7.78481 2.37499 7.97945 2.84336 7.98058 3.33206V4.18972C7.97945 4.67843 7.78481 5.14679 7.43924 5.49236C7.09367 5.83793 6.62531 6.03257 6.1366 6.0337H1.48805V1.48808Z"/>
<path d="M23.6416 3.97099L27.5011 13.5211H29.1049L24.4435 1.9855L23.6416 0L22.8397 1.9855L18.1783 13.5211H19.7821L23.6416 3.97099Z"/>
<path d="M86.3799 0H87.3276V0.188699H86.9631V1.31224H86.7486V0.188699H86.3799V0Z"/>
<path d="M87.6921 0.00427246H88.0566L88.3396 1.02918L88.6312 0.00427246H89V1.31221H88.7899V0.235831H88.7684L88.4597 1.26077H88.241L87.9108 0.235831V1.31221H87.7007L87.6921 0.00427246Z"/>
<path d="M37.8617 0V1.48805H44.813L38.7236 12.0331L37.8617 13.5211H39.5813H46.5241L47.3818 12.0331H40.439L46.5284 1.48805L47.386 0H45.6707H37.8617Z"/>
<path d="M56.7946 0V1.48805H65.4013L66.259 0H56.7946Z"/>
<path d="M56.7946 6.01648V7.50453H65.4013L66.259 6.01648H56.7946Z"/>
<path d="M56.7946 12.0331V13.5211H65.4013L66.259 12.0331H56.7946Z"/>
<path d="M23.6416 3.97099L27.5011 13.5211H29.1049L24.4435 1.9855L23.6416 0L22.8397 1.9855L18.1783 13.5211H19.7821L23.6416 3.97099Z"/>
</svg>
