<svg width="44" height="44" viewBox="0 0 44 44" fill="none" xmlns="http://www.w3.org/2000/svg">
<path d="M15.5 16.625C15.5 14.4425 17.2758 12.6667 19.4583 12.6667H27.0692C26.795 11.7075 25.9208 11 24.875 11H15.2917C14.0275 11 13 12.0275 13 13.2917V26.2083C13 27.4725 14.0275 28.5 15.2917 28.5H15.5V16.625Z" fill="white"/>
<path d="M29.0416 14.3333H19.4583C18.1941 14.3333 17.1666 15.3608 17.1666 16.625V28.7083C17.1666 29.9725 18.1941 31 19.4583 31H29.0416C30.3058 31 31.3333 29.9725 31.3333 28.7083V16.625C31.3333 15.3608 30.3058 14.3333 29.0416 14.3333ZM27.375 28.5H21.125C20.78 28.5 20.5 28.22 20.5 27.875C20.5 27.53 20.78 27.25 21.125 27.25H27.375C27.72 27.25 28 27.53 28 27.875C28 28.22 27.72 28.5 27.375 28.5ZM27.375 25.1667H21.125C20.78 25.1667 20.5 24.8867 20.5 24.5417C20.5 24.1967 20.78 23.9167 21.125 23.9167H27.375C27.72 23.9167 28 24.1967 28 24.5417C28 24.8867 27.72 25.1667 27.375 25.1667ZM27.375 22.25H21.125C20.78 22.25 20.5 21.97 20.5 21.625C20.5 21.28 20.78 21 21.125 21H27.375C27.72 21 28 21.28 28 21.625C28 21.97 27.72 22.25 27.375 22.25ZM27.375 18.9167H21.125C20.78 18.9167 20.5 18.6367 20.5 18.2917C20.5 17.9467 20.78 17.6667 21.125 17.6667H27.375C27.72 17.6667 28 17.9467 28 18.2917C28 18.6367 27.72 18.9167 27.375 18.9167Z" fill="white"/>
<circle cx="22" cy="22" r="21.5" fill="white" fill-opacity="0.1" stroke="#474747"/>
</svg>
