<svg xmlns="http://www.w3.org/2000/svg" width="65px" height="67px" viewBox="0 0 65 67">
<path fill-rule="evenodd" fill="#f13724" d="M61.917,14.021 L61.593,14.021 C61.557,14.021 61.521,14.022 61.484,14.023 C61.341,13.558 61.071,13.142 60.704,12.822 L54.626,6.797 C54.078,6.256 53.199,6.256 52.652,6.797 L49.547,9.873 C46.492,7.855 43.073,6.447 39.482,5.729 L39.482,1.394 C39.480,0.624 38.853,-0.000 38.082,0.000 L29.481,0.000 C28.710,0.000 28.084,0.624 28.082,1.394 L28.082,5.729 C24.490,6.447 21.072,7.855 18.017,9.873 L14.912,6.797 C14.364,6.256 13.485,6.256 12.938,6.797 L6.856,12.826 C6.310,13.367 6.306,14.246 6.847,14.792 C6.850,14.796 6.853,14.798 6.856,14.801 L9.963,17.882 C7.944,20.901 6.535,24.285 5.815,27.844 L1.399,27.844 C0.628,27.844 0.003,28.466 0.000,29.236 L0.000,37.764 C0.002,38.535 0.628,39.157 1.399,39.157 L5.833,39.157 C6.563,42.705 7.978,46.077 9.999,49.083 L6.856,52.200 C6.310,52.740 6.306,53.621 6.847,54.166 C6.850,54.169 6.853,54.172 6.856,54.175 L12.938,60.205 C13.485,60.745 14.364,60.745 14.912,60.205 L18.072,57.072 C21.114,59.071 24.512,60.466 28.082,61.181 L28.082,65.606 C28.084,66.377 28.710,67.000 29.481,67.000 L38.082,67.000 C38.853,67.000 39.479,66.377 39.481,65.606 L39.481,61.181 C43.051,60.466 46.450,59.071 49.491,57.072 L52.652,60.205 C53.199,60.745 54.078,60.745 54.626,60.205 L60.708,54.175 C61.253,53.635 61.257,52.754 60.717,52.209 C60.714,52.205 60.711,52.203 60.708,52.200 L57.719,49.237 L59.128,48.538 C59.709,49.314 60.623,49.771 61.593,49.771 L61.917,49.771 C63.619,49.769 64.998,48.391 65.000,46.690 L65.000,17.102 C64.998,15.401 63.619,14.023 61.917,14.021 ZM46.345,42.234 L46.339,42.232 L37.291,40.011 L37.288,40.010 L35.145,39.484 L35.145,27.149 L45.303,23.472 L45.309,23.470 L58.510,18.692 L58.510,45.222 L46.345,42.234 ZM34.972,25.473 C34.350,23.500 32.245,22.404 30.271,23.025 C28.813,23.484 27.780,24.782 27.660,26.304 L23.728,26.304 C23.102,26.304 22.594,26.811 22.592,27.437 L22.592,38.809 C22.594,39.435 23.102,39.942 23.728,39.942 L27.647,39.942 L27.647,40.102 C27.650,41.854 28.867,43.372 30.579,43.756 L30.579,47.794 C27.844,47.200 25.336,45.840 23.345,43.875 C17.609,38.284 17.494,29.103 23.090,23.371 C23.155,23.304 23.221,23.239 23.287,23.173 C26.213,20.295 30.174,18.711 34.279,18.777 C37.333,18.828 40.786,19.314 43.629,22.340 L34.972,25.473 ZM31.396,42.213 C30.229,42.212 29.284,41.268 29.283,40.101 L29.283,26.599 C29.292,25.433 30.246,24.494 31.413,24.503 C32.567,24.512 33.501,25.446 33.510,26.599 L33.510,40.101 C33.509,41.268 32.563,42.212 31.396,42.213 L31.396,42.213 ZM27.647,38.307 L24.228,38.307 L24.228,27.938 L27.648,27.938 L27.647,38.307 ZM32.214,43.756 C33.552,43.455 34.620,42.448 35.000,41.131 L36.265,41.441 L36.424,47.897 C35.552,48.055 34.668,48.135 33.782,48.137 C33.258,48.137 32.735,48.109 32.214,48.056 L32.214,43.756 ZM38.050,47.516 L37.911,41.845 L44.712,43.516 C43.042,45.345 40.659,46.758 38.050,47.516 L38.050,47.516 ZM56.615,47.960 C55.955,48.286 55.685,49.085 56.011,49.744 C56.076,49.875 56.162,49.994 56.265,50.097 L59.382,53.188 L53.639,58.882 L50.507,55.777 C50.032,55.312 49.296,55.242 48.742,55.609 C45.787,57.579 42.468,58.942 38.980,59.615 C38.324,59.741 37.849,60.314 37.846,60.981 L37.846,65.365 L29.717,65.365 L29.717,60.981 C29.714,60.314 29.239,59.741 28.583,59.615 C25.095,58.941 21.777,57.579 18.821,55.608 C18.267,55.241 17.531,55.311 17.057,55.777 L13.925,58.881 L8.181,53.188 L11.295,50.100 C11.770,49.627 11.841,48.884 11.463,48.330 C9.470,45.409 8.087,42.116 7.398,38.648 C7.267,37.996 6.694,37.525 6.028,37.523 L1.635,37.523 L1.635,29.477 L6.011,29.477 C6.679,29.475 7.253,29.003 7.382,28.347 C8.061,24.869 9.438,21.564 11.429,18.631 C11.804,18.078 11.733,17.336 11.259,16.864 L8.182,13.813 L13.925,8.119 L17.002,11.170 C17.477,11.636 18.215,11.706 18.769,11.336 C21.738,9.347 25.075,7.973 28.583,7.296 C29.239,7.169 29.714,6.597 29.718,5.930 L29.718,1.635 L37.846,1.635 L37.846,5.930 C37.849,6.597 38.324,7.169 38.980,7.296 C42.489,7.973 45.826,9.347 48.794,11.336 C49.348,11.706 50.086,11.636 50.561,11.170 L53.639,8.119 L59.560,13.990 L59.576,14.005 C59.843,14.256 59.912,14.423 59.912,14.477 C59.909,14.499 59.900,14.520 59.887,14.538 C59.071,15.080 58.562,15.976 58.514,16.953 L45.285,21.741 C41.926,17.786 37.673,17.199 34.306,17.143 C29.759,17.072 25.375,18.825 22.135,22.013 C15.789,28.272 15.722,38.488 21.986,44.830 C22.056,44.900 22.126,44.971 22.197,45.040 C25.282,48.084 29.446,49.785 33.781,49.771 C38.760,49.771 43.678,47.502 46.486,43.952 L58.518,46.907 C58.521,46.942 58.523,46.977 58.527,47.011 L56.615,47.960 ZM63.365,46.690 C63.364,47.489 62.716,48.136 61.917,48.137 L61.593,48.137 C60.794,48.136 60.146,47.489 60.145,46.690 L60.145,17.102 C60.145,16.772 60.259,16.452 60.467,16.194 C60.558,16.156 60.640,16.100 60.711,16.032 C60.724,16.020 60.740,16.006 60.758,15.991 C60.809,15.943 60.877,15.881 60.951,15.807 C61.150,15.707 61.370,15.655 61.593,15.655 L61.917,15.655 C62.716,15.656 63.364,16.303 63.365,17.102 L63.365,46.690 Z"/>
</svg>
