<svg xmlns="http://www.w3.org/2000/svg" width="60px" height="60px" viewBox="0 0 60 60">
<path fill-rule="evenodd" fill="#f13724" d="M59.157,8.537 L53.147,8.537 L53.147,14.873 C53.147,15.338 52.770,15.714 52.305,15.714 C51.841,15.714 51.464,15.338 51.464,14.873 L51.464,8.537 L45.128,8.537 C44.663,8.537 44.287,8.159 44.287,7.695 C44.287,7.230 44.663,6.853 45.128,6.853 L51.464,6.853 L51.464,0.842 C51.464,0.377 51.841,0.001 52.305,0.001 C52.770,0.001 53.147,0.377 53.147,0.842 L53.147,6.853 L59.157,6.853 C59.621,6.853 59.998,7.230 59.998,7.695 C59.998,8.159 59.621,8.537 59.157,8.537 ZM38.822,3.984 C35.865,2.954 32.756,2.431 29.625,2.435 C14.218,2.435 1.684,14.971 1.684,30.378 C1.680,33.644 2.249,36.885 3.367,39.953 C3.474,40.237 3.420,40.556 3.227,40.789 C3.033,41.022 2.729,41.132 2.431,41.079 C2.133,41.025 1.886,40.816 1.786,40.530 C-2.124,29.776 0.502,17.732 8.535,9.585 C16.566,1.436 28.570,-1.362 39.376,2.395 C39.809,2.551 40.036,3.029 39.884,3.463 C39.733,3.899 39.259,4.131 38.822,3.984 ZM29.924,51.082 C29.772,51.125 29.611,51.124 29.459,51.080 C29.277,51.027 24.955,49.740 20.575,46.534 C14.708,42.239 11.608,36.544 11.608,30.066 L11.608,19.883 C11.608,19.547 11.808,19.244 12.117,19.110 L12.232,19.060 C18.362,16.422 24.156,13.067 29.495,9.063 C29.794,8.839 30.205,8.839 30.505,9.063 C35.843,13.067 41.638,16.422 47.767,19.060 L47.883,19.109 C48.191,19.243 48.392,19.547 48.392,19.882 L48.392,30.066 C48.392,36.551 45.182,42.248 39.108,46.542 C34.579,49.744 30.112,51.029 29.924,51.082 ZM40.464,40.980 C40.928,40.980 41.305,41.357 41.305,41.821 L41.305,42.533 C44.892,39.002 46.708,34.821 46.708,30.065 L46.708,20.437 C40.794,17.856 35.190,14.619 29.999,10.786 C24.809,14.619 19.205,17.856 13.291,20.437 L13.291,30.065 C13.291,34.911 15.106,39.157 18.694,42.729 L18.694,41.822 C18.694,41.358 19.071,40.980 19.536,40.980 C20.000,40.980 20.378,41.358 20.378,41.822 L20.378,42.895 C20.377,43.280 20.116,43.615 19.744,43.710 C20.302,44.203 20.898,44.682 21.529,45.146 C24.026,46.960 26.781,48.390 29.700,49.390 C32.717,48.393 35.572,46.962 38.176,45.139 C38.854,44.657 39.492,44.160 40.090,43.649 C39.803,43.507 39.622,43.214 39.622,42.894 L39.622,41.821 C39.622,41.357 39.998,40.980 40.464,40.980 ZM36.976,43.736 C36.510,43.736 36.134,43.360 36.134,42.894 L36.134,41.821 C36.134,41.357 36.510,40.980 36.976,40.980 C37.440,40.980 37.817,41.357 37.817,41.821 L37.817,42.894 C37.817,43.360 37.440,43.736 36.976,43.736 ZM29.089,34.093 C28.760,34.422 28.227,34.422 27.898,34.093 L23.924,30.119 C23.708,29.907 23.620,29.595 23.698,29.302 C23.775,29.007 24.004,28.778 24.298,28.701 C24.591,28.624 24.903,28.711 25.115,28.928 L28.494,32.306 L34.884,25.915 C35.213,25.586 35.746,25.586 36.075,25.916 C36.404,26.243 36.404,26.777 36.075,27.106 L29.089,34.093 ZM23.865,42.894 C23.865,43.360 23.488,43.736 23.024,43.736 C22.559,43.736 22.182,43.360 22.182,42.894 L22.182,41.821 C22.182,41.357 22.559,40.980 23.024,40.980 C23.488,40.980 23.865,41.357 23.865,41.821 L23.865,42.894 ZM26.512,40.980 C26.977,40.980 27.353,41.357 27.353,41.821 L27.353,42.894 C27.353,43.360 26.977,43.736 26.512,43.736 C26.047,43.736 25.670,43.360 25.670,42.894 L25.670,41.821 C25.670,41.357 26.047,40.980 26.512,40.980 ZM29.999,40.980 C30.465,40.980 30.841,41.357 30.841,41.821 L30.841,42.894 C30.841,43.360 30.465,43.736 29.999,43.736 C29.535,43.736 29.158,43.360 29.158,42.894 L29.158,41.821 C29.158,41.357 29.535,40.980 29.999,40.980 ZM33.487,40.980 C33.952,40.980 34.329,41.357 34.329,41.821 L34.329,42.894 C34.329,43.360 33.952,43.736 33.487,43.736 C33.023,43.736 32.646,43.360 32.646,42.894 L32.646,41.821 C32.646,41.357 33.023,40.980 33.487,40.980 ZM7.335,47.672 L16.637,46.463 C16.971,46.419 17.300,46.580 17.470,46.871 C17.641,47.161 17.623,47.525 17.423,47.797 L13.462,53.174 C18.178,56.540 23.831,58.341 29.625,58.323 C45.031,58.323 57.565,45.788 57.565,30.378 C57.572,26.683 56.841,23.024 55.416,19.614 C55.236,19.186 55.439,18.693 55.868,18.513 C56.296,18.334 56.789,18.536 56.969,18.965 C62.054,31.168 58.441,45.265 48.114,53.518 C37.786,61.770 23.242,62.184 12.463,54.530 L9.723,58.249 C9.523,58.521 9.181,58.647 8.853,58.569 C8.524,58.492 8.274,58.226 8.216,57.894 L6.614,48.650 C6.575,48.424 6.630,48.191 6.766,48.006 C6.902,47.822 7.108,47.701 7.335,47.672 ZM9.538,55.662 L11.598,52.865 C11.602,52.859 11.606,52.853 11.611,52.846 C11.614,52.844 11.616,52.840 11.620,52.837 L14.898,48.387 L8.422,49.228 L9.538,55.662 Z"/>
</svg>
