<svg xmlns="http://www.w3.org/2000/svg" viewBox="0 0 94 94" width="94" height="94">
<style type="text/css">
	.st0{fill:none;stroke:#EA1C24;stroke-width:2;stroke-linejoin:round;stroke-miterlimit:10;}
	.st1{fill:none;stroke:#EA1C24;stroke-width:2;stroke-miterlimit:10;}
</style>
<g>
	<path class="st0" d="M75.5,52.6l7.5,0.7l2-7.6l-6.8-3.2c0.1-1,0.1-2,0.1-3c0-1,0-1.9-0.1-2.9l6.8-3.2l-1-3.8l-1-3.8l-7.5,0.7
		c-0.8-1.8-1.8-3.5-2.9-5.1l4.3-6.2l-5.5-5.5L65.2,14c-1.6-1.1-3.3-2.1-5.1-3l0.7-7.5l-7.6-2l-3.2,6.8C48,8.2,46,8.1,44,8.3
		l-3.2-6.8l-3.8,1l-3.8,1L34,11c-1.8,0.8-3.5,1.8-5.1,2.9l-6.2-4.3l-5.6,5.6l4.3,6.2c-1.1,1.6-2.1,3.3-3,5.1L11,25.8l-2,7.6l6.8,3.2
		c-0.2,1.9-0.2,3.9,0,5.9L9,45.7l1,3.8l1,3.8l7.5-0.7c0.8,1.8,1.8,3.5,2.9,5.1L17,63.8l5.5,5.5l3.7-2.5"/>
	<path class="st1" d="M52.3,53.1h3.9c1.2,0,3.2,0.8,3.9,2h3.9c1.9,0,3.9,1.7,3.9,3.9H72c1.9,0,3.9,1.7,3.9,3.9v17.7
		c0,4-3.9,7.2-3.9,9.9v2"/>
	<path class="st1" d="M52.3,62.9V39.3c0-2.2-1.8-3.9-3.9-3.9c-2.2,0-3.9,1.8-3.9,3.9v27.6l-2.6,2.5l-5.1-8c-3.2-4.3-8-1.9-8,0
		c0,0,6,17.1,6.8,18.4c1.4,2.1,7,7,7,8.7c0,1.7,0,3.9,0,3.9"/>
	<path class="st1" d="M60.2,55.1v7.9"/>
	<path class="st1" d="M68,59v5.9"/>
	<path class="st0" d="M39.5,47.2c-1.9-2.1-3-4.8-3-7.9c0-6.5,5.3-11.8,11.8-11.8c6.5,0,11.8,5.3,11.8,11.8c0,3.2-1.3,6.1-3.3,8.2"/>
</g>
</svg>
