<svg xmlns="http://www.w3.org/2000/svg" viewBox="0 0 94 94" width="94" height="94">
<style type="text/css">
	.st0{fill:none;stroke:#00aae9;stroke-width:2;stroke-miterlimit:10;}
</style>
<g>
	<path class="st0" d="M31.4,82.6c0.8-0.8,1.5-2,4-2s26.7,0,29.1,0c2.2,0,14.3-12.1,15.8-13.8c1.5-1.7,8.1-11.6,9.9-15.8
		c-1.1-1.5-4.3-2.8-7.9-2c-3.5,0.8-5.6,3.3-7.9,7.9l-9.1,4.7"/>
	<path class="st0" d="M42.8,68.8c0,0,15.8,0,17.8,0c7.9,0,7.9-9.9,0-9.9c-2,0-6.4,0-11.9,0c-1.6,0-4.7-4-7.4-4c-1.2,0-7.2,0-9.9,0
		s-6,2.2-7.9,4c-3,3-8.2,7.9-8.2,7.9"/>
	<path class="st0" d="M11.7,62.8l-7.9,7.9l21.8,21.8l7.9-7.9L11.7,62.8z"/>
	<path class="st0" d="M58.6,1.5v11.9c1-0.9,2.4-2,4-2c3.3,0,5.9,2.7,5.9,5.9s-2.7,5.9-5.9,5.9c-1.5,0-2.9-1-4-2v9.9"/>
	<path class="st0" d="M88.3,31.2H76.4c0.9,1,2,2.4,2,4c0,3.3-2.7,5.9-5.9,5.9c-3.3,0-5.9-2.7-5.9-5.9c0-1.5,1-2.9,2-4h-9.9"/>
	<path class="st0" d="M58.6,31.2v9.9c-1-0.9-2.4-2-4-2c-3.3,0-5.9,2.7-5.9,5.9c0,3.3,2.7,5.9,5.9,5.9c1.5,0,2.9-1,4-2v9.9"/>
	<path class="st0" d="M28.9,31.2h11.9c-0.9-1-2-2.4-2-4c0-3.3,2.7-5.9,5.9-5.9c3.3,0,5.9,2.7,5.9,5.9c0,1.5-1,2.9-2,4h9.9"/>
	<path class="st0" d="M36.5,51c-4.7-5.2-7.6-12.2-7.6-19.8c0-16.4,13.3-29.7,29.7-29.7c16.4,0,29.7,13.3,29.7,29.7
		c0,5-1.2,9.7-3.4,13.8"/>
</g>
</svg>
