<svg xmlns="http://www.w3.org/2000/svg" viewBox="0 0 94 94" width="94" height="94">
<style type="text/css">
	.st0{fill:none;stroke:#00aae9;stroke-width:2;stroke-linejoin:round;stroke-miterlimit:10;}
	.st1{fill:none;stroke:#00aae9;stroke-width:2;stroke-miterlimit:10;}
	.st2{fill:none;stroke:#00aae9;stroke-width:2;stroke-linecap:round;stroke-miterlimit:10;}
</style>
<g>
	<path class="st0" d="M3,82V12c0-1.1,0.9-2,2-2h84c1.1,0,2,0.9,2,2v70c0,1.1-0.9,2-2,2H5C3.9,84,3,83.1,3,82z"/>
	<path class="st0" d="M3,22h88"/>
	<path class="st0" d="M9,16h4"/>
	<path class="st0" d="M17,16h4"/>
	<path class="st0" d="M25,16h4"/>
	<path class="st1" d="M47,68c3.3,0,6-2.7,6-6c0-3.3-2.7-6-6-6s-6,2.7-6,6C41,65.3,43.7,68,47,68z"/>
	<path class="st2" d="M67.8,50c2,3.5,3.2,7.6,3.2,12"/>
	<path class="st2" d="M23,62c0-13.3,10.7-24,24-24c4.4,0,8.5,1.2,12,3.2"/>
	<path class="st1" d="M39,70l4-4"/>
	<path class="st1" d="M51,58l16-16"/>
</g>
</svg>
