<?xml version="1.0" encoding="utf-8"?>
<!-- Generator: Adobe Illustrator 19.2.1, SVG Export Plug-In . SVG Version: 6.00 Build 0)  -->
<svg version="1.1" id="Слой_1" xmlns="http://www.w3.org/2000/svg" xmlns:xlink="http://www.w3.org/1999/xlink" x="0px" y="0px"
	 viewBox="0 0 52 52" style="enable-background:new 0 0 52 52;" xml:space="preserve">
<style type="text/css">
	.st0{fill:none;stroke:#000000;stroke-width:1.5;stroke-miterlimit:10;}
</style>
<g>
	<path class="st0" d="M23.4,28.7h7.8l4.7,4.7c0.4,0.4,1.1,0.1,1.1-0.5v-4.3h1.9c1.1,0,1.9-0.9,1.9-1.9V15.1c0-1.1-0.9-1.9-1.9-1.9
		H23.4c-1.1,0-1.9,0.9-1.9,1.9v11.6C21.5,27.9,22.3,28.7,23.4,28.7z"/>
	<path class="st0" d="M20.2,18.4h-7.1c-1.1,0-1.9,0.9-1.9,1.9v11.6c0,1.1,0.9,1.9,1.9,1.9h2.6v4.3c0,0.6,0.7,0.9,1.1,0.5l4.7-4.7
		h5.2c1.1,0,1.9-0.9,1.9-1.9V30"/>
	<path class="st0" d="M27.9,21.6l2.6,2.6l4.5-5.8"/>
</g>
</svg>
