<svg xmlns="http://www.w3.org/2000/svg" viewBox="0 0 52 52">
<style type="text/css">
	.st0{fill:none;stroke:#C94C44;stroke-width:1.5;stroke-miterlimit:10;}
</style>
<g>
	<path class="st0" d="M30.7,20.9h5.4c0.4,0,0.9,0.2,1.1,0.6l2.3,4.1h0.7c0.8,0,1.3,0.5,1.3,1.5v4.6c0,0.7-0.6,1.3-1.3,1.3h-1.3"/>
	<path class="st0" d="M13.9,33.1h-3.4V15.6h20.2v17.5H19.3"/>
	<path class="st0" d="M38.8,33.8c0,1.5-1.2,2.7-2.7,2.7c-1.5,0-2.7-1.2-2.7-2.7c0-1.5,1.2-2.7,2.7-2.7C37.6,31.1,38.8,32.3,38.8,33.8z"/>
	<path class="st0" d="M19.3,33.8c0,1.5-1.2,2.7-2.7,2.7c-1.5,0-2.7-1.2-2.7-2.7c0-1.5,1.2-2.7,2.7-2.7C18.1,31.1,19.3,32.3,19.3,33.8z"/>
	<path class="st0" d="M30.7,33.1h2.7"/>
	<path class="st0" d="M32.1,26.3h4.7v-0.7l-1.3-2"/>
</g>
</svg>
