<svg xmlns="http://www.w3.org/2000/svg" viewBox="0 0 94 94" width="94" height="94">
<style type="text/css">
	.st0{fill:none;stroke:#EA1C24;stroke-width:2;stroke-linecap:round;stroke-miterlimit:10;}
	.st1{fill:none;stroke:#EA1C24;stroke-width:2;stroke-miterlimit:10;}
	.st2{fill:none;stroke:#EA1C24;stroke-width:2;stroke-linecap:round;stroke-linejoin:round;stroke-miterlimit:10;}
</style>
<g>
	<path class="st0" d="M51.5,27.2h4c2.8,0,3.4,2,3,4.6c0,0-1.1,12.8-1.5,14.1c-0.4,1.3-1.1,3.1-3,3.1c0,0-14.2,0-15,0
		c-4.1,0-4.3-4-7.2-4h-4"/>
	<path class="st0" d="M37.5,36.1c3.9,0,6.6-2.6,7.3-5.7c0.3-1.2,0.6-2.3,1.1-3.4c0.3-0.6,0.7-1.3,0.8-1.6c0.2-0.6,0.9-1.7,0.9-4.3
		c0-2.6-0.3-3.9-1.9-5.2c-1.5-1.3-3.7-0.7-3.7,0.7v1.5c0,3.2-2.3,4-4.7,6.4c0,0-2.5,2.8-5.5,2.8h-4"/>
	<path class="st1" d="M27.8,23.3h-9.9V49h9.9V23.3z"/>
	<path class="st0" d="M54.9,64c-5,3-10.9,4.7-17.2,4.7C19.1,68.7,4,53.7,4,35.1S19.1,1.5,37.6,1.5s33.6,15.1,33.6,33.6
		c0,3.8-0.6,7.5-1.8,10.9"/>
	<path class="st2" d="M89.1,71.2L61.4,50.9v34.3c0,1,0.8,1.4,1.7,0.6l7.8-7.5l7.5,13.2c0.6,1,2.1,1.3,3.3,0.5l3.1-2
		c1.2-0.7,1.6-2.1,1.1-3.2l-7.2-12.5H88C90.2,74.4,90.6,72.1,89.1,71.2z"/>
</g>
</svg>
