<svg xmlns="http://www.w3.org/2000/svg" viewBox="0 0 94 94" width="94" height="94">
<style type="text/css">
	.st0{fill:none;stroke:#EA1C24;stroke-width:2;stroke-linecap:round;stroke-miterlimit:10;}
	.st1{fill:none;stroke:#EA1C24;stroke-width:2;stroke-miterlimit:10;}
	.st2{fill:none;stroke:#EA1C24;stroke-width:2;stroke-linecap:round;stroke-linejoin:round;stroke-miterlimit:10;}
</style>
<g>
	<path class="st0" d="M77.4,88.5h-4c-3.5,0-5.2,4-10.1,4c-1,0-13.1,0-13.1,0c-4,0-5.9-2.1-6.9-6c-0.7-3-2.2-14.2-2.2-14.2
		c-0.4-3.6,2-6.1,6.1-6.1h1.2"/>
	<path class="st0" d="M65.2,78.3c-4.6,0-8.6-3.8-9.2-8.1c-0.2-1.4-0.4-2.8-1.1-4c-0.7-1.1-1.7-4-1.7-7.1c0-3.1,0.8-4.8,2.8-6.3
		c2.1-1.6,5.3-0.5,5.3,1.2v2c0,3.8,2,4.2,4.8,7c0,0,3.7,3.1,7.3,3.1h4"/>
	<path class="st1" d="M87.5,64.2H77.4v26.3h10.1V64.2z"/>
	<path class="st2" d="M34.8,90.5H6.5v-89h56.6l8.1,8.1v46.5"/>
	<path class="st2" d="M59.1,7.6v6.1h6.1"/>
	<path class="st2" d="M18.7,25.8l4,4l8.1-10.1"/>
	<path class="st2" d="M38.9,27.8h20.2"/>
	<path class="st2" d="M38.9,19.7H49"/>
	<path class="st2" d="M38.9,50H45"/>
	<path class="st2" d="M18.7,48l4,4l8.1-10.1"/>
	<path class="st2" d="M38.9,41.9h16.2"/>
	<path class="st2" d="M18.7,70.3l4,4l8.1-10.1"/>
</g>
</svg>
