<svg width="91" height="89" viewBox="0 0 91 89" fill="none" xmlns="http://www.w3.org/2000/svg">
<path d="M20.6262 78.6542C21.5084 79.2245 22.4089 79.7532 23.3492 80.2597C34.6124 86.3383 46.2267 86.3701 53.0932 83.7495M4.41528 35.2977C2.68284 43.6292 3.65936 52.3852 7.05807 60.214M59.2267 51.703C60.191 49.2134 61.8134 46.8564 64.1506 44.9755C68.3338 41.6033 76.1364 38.9596 80.1196 31.2774C84.7182 22.3648 80.6429 11.3688 65.7441 5.09203C54.5228 0.356104 30.189 2.38104 16.5945 14.5632" stroke="#505050" stroke-miterlimit="10"/>
<path d="M60.6223 65.5329C57.9957 61.1726 8.2956 19.6747 5.59859 18.1903C3.98795 17.2871 2.23677 17.3072 1.36437 18.2644C0.492902 19.242 0.634973 20.9875 1.68245 22.4873C3.40917 25.0151 49.3298 70.6814 53.9145 72.8932" stroke="#D43C38" stroke-miterlimit="10"/>
<path d="M84.3105 78.5938C77.8297 85.5768 70.7279 86.6396 65.7681 85.5657C59.0374 84.085 57.0164 79.1669 57.9091 75.1323C58.7814 71.0987 62.0942 67.8483 68.3101 69.2103C74.5057 70.5732 76.2435 78.1733 84.3105 78.5938Z" stroke="#D43C38" stroke-miterlimit="10" stroke-linejoin="round"/>
<path d="M67.8765 31.7434C71.2448 31.5872 73.8488 28.73 73.6925 25.3616C73.5363 21.9933 70.6791 19.3894 67.3108 19.5456C63.9425 19.7018 61.3385 22.559 61.4948 25.9273C61.651 29.2957 64.5082 31.8996 67.8765 31.7434Z" stroke="#505050" stroke-miterlimit="10"/>
<path d="M51.1411 22.3328C54.5095 22.1766 57.1134 19.3194 56.9572 15.9511C56.801 12.5827 53.9438 9.97879 50.5755 10.135C47.2071 10.2912 44.6032 13.1484 44.7594 16.5167C44.9156 19.8851 47.7728 22.489 51.1411 22.3328Z" stroke="#505050" stroke-miterlimit="10"/>
<path d="M33.0337 27.2473C36.4021 27.0911 39.006 24.2339 38.8498 20.8655C38.6936 17.4972 35.8364 14.8933 32.468 15.0495C29.0997 15.2057 26.4958 18.0629 26.652 21.4312C26.8082 24.7996 29.6654 27.4035 33.0337 27.2473Z" stroke="#505050" stroke-miterlimit="10"/>
<path d="M34.8252 65.8736L35.0138 69.9395" stroke="#505050" stroke-miterlimit="10"/>
<path d="M35.2021 74.0054L35.3907 78.0714" stroke="#505050" stroke-miterlimit="10"/>
<path d="M33.0747 72.0668L29.0088 72.2554" stroke="#505050" stroke-miterlimit="10"/>
<path d="M41.2066 71.6897L37.1406 71.8782" stroke="#505050" stroke-miterlimit="10"/>
<path d="M79.3618 59.7334L75.4845 63.9879" stroke="#505050" stroke-miterlimit="10"/>
<path d="M89.0552 49.0972L85.1778 53.3517" stroke="#505050" stroke-miterlimit="10"/>
<path d="M85.46 59.4506L89.7145 63.328" stroke="#505050" stroke-miterlimit="10"/>
<path d="M74.8242 49.7572L79.0787 53.6346" stroke="#505050" stroke-miterlimit="10"/>
<path d="M10.5237 69.0379L4.4248 69.3207" stroke="#505050" stroke-miterlimit="10"/>
<path d="M24.7542 68.3779L18.6553 68.6608" stroke="#505050" stroke-miterlimit="10"/>
<path d="M14.7783 72.9153L15.0612 79.0142" stroke="#505050" stroke-miterlimit="10"/>
<path d="M14.1182 58.6845L14.401 64.7834" stroke="#505050" stroke-miterlimit="10"/>
</svg>
