<svg width="76" height="83" viewBox="0 0 76 83" fill="none" xmlns="http://www.w3.org/2000/svg">
<path d="M53.8569 32.7319V30.5824C53.8569 25.0148 43.2678 22.1429 37.9997 22.1429C32.7316 22.1429 22.1426 25.0148 22.1426 30.5824V32.7319" stroke="#D43C38" stroke-miterlimit="10" stroke-linejoin="round"/>
<path d="M13.3333 43.3033V53.8748H22.1076C25.1029 53.8748 27.7633 55.7776 28.75 58.6143L34.1414 82.0653H26.3362L20.6981 64.4462H9.43952C4.78809 64.4462 1 60.6581 1 55.9891V34.8286C1 31.7276 3.51952 29.1905 6.63809 29.1905H6.90238C10.3205 29.1905 13.5976 30.6176 15.9233 33.1195L22.1252 39.7619H32.7143C32.7143 39.7619 32.0976 46.8095 25.6667 46.8095C21.9138 46.8095 16.4871 46.8095 16.4871 46.8095L7.87143 38.0176" stroke="#505050" stroke-miterlimit="10" stroke-linejoin="round"/>
<path d="M11.5711 23.9224C7.64201 23.9224 4.52344 20.6276 4.52344 16.8748V15.1128C4.52344 11.3424 7.64201 8.04761 11.5711 8.04761C15.5001 8.04761 18.6187 11.3424 18.6187 15.1128V16.8748C18.6187 20.6276 15.5001 23.9224 11.5711 23.9224Z" stroke="#505050" stroke-miterlimit="10" stroke-linejoin="round"/>
<path d="M62.6663 43.3033V53.8748H53.5572C50.562 53.8748 47.9015 55.7776 46.9149 58.6143L41.5234 82.0653H49.3287L54.9668 64.4462H66.2253C70.8944 64.4462 74.9996 60.6581 74.9996 56.0067V34.8286C74.9996 31.7276 72.1453 29.1905 69.0444 29.1905H68.7801C65.362 29.1905 62.0849 30.6176 59.7591 33.1195L53.5572 39.7619H43.2853C43.2853 39.7619 43.902 46.8095 50.333 46.8095C54.0858 46.8095 59.1777 46.8095 59.1777 46.8095L67.952 38.0176" stroke="#505050" stroke-miterlimit="10" stroke-linejoin="round"/>
<path d="M64.4285 23.9224C68.3575 23.9224 71.4761 20.6276 71.4761 16.8748V15.1128C71.4761 11.3424 68.3575 8.04761 64.4285 8.04761C60.4994 8.04761 57.3809 11.3424 57.3809 15.1128V16.8748C57.3809 20.6276 60.4994 23.9224 64.4285 23.9224Z" stroke="#505050" stroke-miterlimit="10" stroke-linejoin="round"/>
<path d="M13.333 46.8271H62.6663" stroke="#505050" stroke-miterlimit="10" stroke-linejoin="round"/>
<path d="M37.9998 16.8748C34.0707 16.8748 30.9521 13.58 30.9521 9.82714V8.06524C30.9521 4.29476 34.0707 1 37.9998 1C41.9288 1 45.0474 4.29476 45.0474 8.06524V9.82714C45.0474 13.58 41.9288 16.8748 37.9998 16.8748Z" stroke="#D43C38" stroke-miterlimit="10" stroke-linejoin="round"/>
</svg>
