<svg width="15" height="15" viewBox="0 0 15 15" fill="none" xmlns="http://www.w3.org/2000/svg">
<path d="M14.3998 9.60936L12.8212 8.28795C12.8614 8.01239 12.881 7.75329 12.881 7.49999C12.881 7.24669 12.8614 6.98758 12.8211 6.71202L14.3998 5.39061C14.5164 5.29326 14.546 5.12633 14.47 4.99481L13.0326 2.50517C12.9566 2.37395 12.7976 2.31597 12.6548 2.36783L10.724 3.07338C10.3111 2.75021 9.85241 2.48622 9.3565 2.28694L9.00128 0.258427C8.97503 0.108955 8.84504 0 8.69337 0H5.81862C5.66695 0 5.53693 0.108955 5.51071 0.258486L5.15548 2.287C4.65957 2.48627 4.2009 2.75027 3.78799 3.07344L1.85713 2.36786C1.71521 2.31506 1.55502 2.37366 1.47932 2.5052L0.0419259 4.99481C-0.0340701 5.12636 -0.00445098 5.29329 0.112121 5.39061L1.69078 6.71202C1.65053 6.98758 1.63099 7.24669 1.63099 7.49999C1.63099 7.75329 1.65053 8.01239 1.69081 8.28795L0.112121 9.60936C-0.00445098 9.70671 -0.0340701 9.87364 0.0419259 10.0052L1.47932 12.4948C1.55561 12.6263 1.71612 12.6843 1.85713 12.6321L3.78796 11.9266C4.20087 12.2497 4.65955 12.5137 5.15545 12.713L5.51068 14.7415C5.53693 14.891 5.66692 15 5.81859 15H8.69334C8.84501 15 8.97503 14.891 9.00125 14.7415L9.35647 12.713C9.85238 12.5137 10.3111 12.2497 10.724 11.9266L12.6548 12.6321C12.7967 12.6831 12.9566 12.6263 13.0326 12.4948L14.47 10.0052C14.546 9.87364 14.5164 9.70671 14.3998 9.60936ZM7.25598 10.625C5.53294 10.625 4.13097 9.22302 4.13097 7.49999C4.13097 5.77695 5.53294 4.37498 7.25598 4.37498C8.97901 4.37498 10.381 5.77698 10.381 7.49999C10.381 9.22299 8.97901 10.625 7.25598 10.625Z" fill="white"/>
</svg>
