<svg width="21" height="24" viewBox="0 0 21 24" fill="none" xmlns="http://www.w3.org/2000/svg">
  <path d="M7.5 24H16.4531C18.5209 24 20.2031 22.3178 20.2031 20.25V7.54688C20.2031 5.47906 18.5209 3.79688 16.4531 3.79688H7.5C5.43219 3.79688 3.75 5.47906 3.75 7.54688V20.25C3.75 22.3178 5.43219 24 7.5 24ZM16.4531 5.67188C17.4869 5.67188 18.3281 6.51306 18.3281 7.54688V20.25C18.3281 21.2838 17.4869 22.125 16.4531 22.125H7.5C6.46619 22.125 5.625 21.2838 5.625 20.25V7.54688C5.625 6.51306 6.46619 5.67188 7.5 5.67188H16.4531ZM0 17.9062V3.75C0 1.68219 1.68219 0 3.75 0H14.1562C14.6741 0 15.0938 0.419678 15.0938 0.9375C15.0938 1.45532 14.6741 1.875 14.1562 1.875H3.75C2.71619 1.875 1.875 2.71619 1.875 3.75V17.9062C1.875 18.4241 1.45532 18.8438 0.9375 18.8438C0.419678 18.8438 0 18.4241 0 17.9062Z" fill="#DF4834"/>
</svg>
