<svg width="24" height="24" viewBox="0 0 24 24" xmlns="http://www.w3.org/2000/svg">
<path d="M23.3628 0.616903C22.5438 -0.202096 21.2135 -0.205611 20.3903 0.60631L9.91115 10.516C8.09179 10.1607 6.13298 10.6862 4.72654 12.0926C3.04448 13.7747 2.92917 15.566 2.81775 17.2982C2.71312 18.9248 2.60489 20.6068 1.158 22.4915L0 24H1.90167C4.67395 24 6.94251 23.6395 8.83705 22.8977C10.378 22.2945 11.66 21.4492 12.8715 20.2376C14.2638 18.8454 14.7925 16.9119 14.4583 15.1082L23.41 3.55151C24.185 2.72567 24.1693 1.42339 23.3628 0.616903ZM11.5457 18.9117C10.5305 19.9269 9.18876 20.9565 6.87426 21.5677C8.21385 20.5418 9.48627 19.1416 10.1451 17.2814L8.37763 16.6554C7.59749 18.8581 5.63334 20.3045 4.02735 21.1594C4.53651 19.7824 4.6184 18.5153 4.68899 17.4186C4.79029 15.8442 4.87026 14.6006 6.0524 13.4185C6.80976 12.6611 7.80421 12.2826 8.79899 12.2826C9.79358 12.2826 10.7885 12.6613 11.5456 13.4185C13.0602 14.9329 13.0602 17.3972 11.5457 18.9117ZM13.6604 13.0763C13.4386 12.7273 13.1759 12.3969 12.8715 12.0926C12.5532 11.7743 12.2065 11.5011 11.8395 11.273L13.3643 9.83111L15.0483 11.2845L13.6604 13.0763ZM22.0369 2.27431L21.995 2.31626L16.1982 9.80008L14.7337 8.53619L21.6867 1.96104L21.7055 1.94281C21.7969 1.85145 21.9456 1.85145 22.0369 1.94281C22.1284 2.03421 22.1284 2.1829 22.0369 2.27431Z" fill="white"/>
</svg>
