<svg width="39" height="46" viewBox="0 0 39 46" fill="none" xmlns="http://www.w3.org/2000/svg">
<path fill-rule="evenodd" clip-rule="evenodd" d="M25.6743 8.55799H12.8372C11.0723 8.55799 9.62787 7.11396 9.62787 5.34869H2.13979V43.8602H36.3721V5.34869H28.8836C28.8836 7.11396 27.4396 8.55799 25.6743 8.55799ZM0 3.20929L9.62787 3.20929C9.62787 1.44403 11.0723 0 12.8372 0H25.6743C27.4396 0 28.8836 1.44403 28.8836 3.20929L38.5115 3.20929V46H0V3.20929ZM12.8372 2.1394C12.2487 2.1394 11.7677 2.62087 11.7677 3.20929V5.34869C11.7677 5.93712 12.2487 6.41859 12.8372 6.41859H25.6743C26.2628 6.41859 26.7442 5.93712 26.7442 5.34869V3.20929C26.7442 2.62087 26.2628 2.1394 25.6743 2.1394H12.8372ZM9.62787 23.5349C9.62787 28.8437 13.947 33.1628 19.2558 33.1628C24.5645 33.1628 28.8836 28.8437 28.8836 23.5349C28.8836 18.2262 24.5645 13.9071 19.2558 13.9071C13.947 13.9071 9.62787 18.2262 9.62787 23.5349ZM11.7677 23.5349C11.7677 19.4027 15.1239 16.0465 19.2558 16.0465C23.388 16.0465 26.7442 19.4027 26.7442 23.5349C26.7442 27.6668 23.388 31.023 19.2558 31.023C15.1239 31.023 11.7677 27.6668 11.7677 23.5349ZM22.3581 28.1483L18.1862 23.976V18.1858H20.3256V23.0934L23.8691 26.6373L22.3581 28.1483ZM33.1628 38.5115H5.34907V40.6509H33.1628V38.5115Z" fill="#EA1C24"/>
</svg>
