<svg width="46" height="52" viewBox="0 0 46 52" xmlns="http://www.w3.org/2000/svg">
  <path fill="#EA1C24" fill-rule="evenodd" clip-rule="evenodd" d="M45.5 23.8335V34.6665C45.5 40.0426 41.1261 44.4165 35.75 44.4165H34.6665V46.5835C34.6665 49.576 32.2425 52 29.25 52H20.5835V49.8335H29.25C31.0377 49.8335 32.5 48.3707 32.5 46.5835V44.4165V43.3335V24.9165H35.75C38.8096 24.9165 41.5446 26.3332 43.3335 28.545V23.8335C43.3335 12.0927 33.9084 2.16653 22.75 2.16653C11.5916 2.16653 2.16653 12.0927 2.16653 23.8335V28.545C3.95544 26.3332 6.69043 24.9165 9.75 24.9165H13V44.4165H9.75C4.37393 44.4165 0 40.0426 0 34.6665V23.8335C0 10.9144 10.4137 0 22.75 0C35.0863 0 45.5 10.9144 45.5 23.8335ZM35.75 27.0835C39.9343 27.0835 43.3335 30.4822 43.3335 34.6665C43.3335 38.8512 39.9343 42.25 35.75 42.25H34.6665V27.0835H35.75ZM9.75 42.25C5.5657 42.25 2.16653 38.8512 2.16653 34.6665C2.16653 30.4822 5.5657 27.0835 9.75 27.0835H10.8335V42.25H9.75Z"/>
</svg>
