<svg xmlns="http://www.w3.org/2000/svg" viewBox="0 0 19 19">
	<path d="M9.5,17.6c-0.3,0-0.7-0.1-1-0.4c-0.7-0.6-1.3-1.1-1.9-1.6l-0.1-0.1c-3.5-3-6.1-5.2-6.1-8.5c0-3.2,2.2-5.6,5.2-5.6c1.1,0,2.1,0.3,3,1C9,2.7,9.3,3,9.5,3.2C9.7,3,10,2.7,10.3,2.5c0.9-0.7,1.9-1,3-1c3,0,5.2,2.4,5.2,5.6c0,3.3-2.6,5.5-6.1,8.5c-0.6,0.5-1.3,1.1-1.9,1.7C10.2,17.4,9.8,17.6,9.5,17.6z M5.7,3.3C3.8,3.3,2.4,4.9,2.4,7c0,2.4,2,4.2,5.4,7.1l0.1,0.1c0.5,0.4,1,0.9,1.6,1.4c0.6-0.5,1.1-1,1.6-1.4c3.4-2.9,5.5-4.7,5.5-7.1c0-2.1-1.4-3.7-3.3-3.7c-0.7,0-1.3,0.2-1.8,0.6c-0.6,0.4-0.9,1-1.1,1.4L9.5,6.9L8.7,5.3C8.5,5,8.1,4.4,7.5,4C7,3.5,6.4,3.3,5.7,3.3z"/>
</svg>
