<svg width="21" height="25" viewBox="0 0 21 25" xmlns="http://www.w3.org/2000/svg">
  <path d="M19.3359 14.1875C19.3355 16.0237 18.7631 17.8142 17.6981 19.3101C16.6332 20.806 15.1286 21.9329 13.3936 22.5343C11.6586 23.1356 9.7794 23.1815 8.01714 22.6655C6.25488 22.1495 4.69714 21.0973 3.56047 19.6552C2.4238 18.2131 1.76466 16.4526 1.67468 14.6186C1.5847 12.7845 2.06835 10.968 3.05839 9.42153C4.04844 7.87504 5.4957 6.67542 7.19899 5.98942C8.90228 5.30342 10.777 5.16511 12.5625 5.59373L9.71875 8.43748L10.8203 9.53905L15.3828 4.97655L10.8281 0.414047L9.71875 1.51561L12.125 3.90623C10.0254 3.57405 7.87446 3.89331 5.96188 4.82101C4.0493 5.74872 2.46699 7.2403 1.42808 9.09482C0.389175 10.9494 -0.0564064 13.0777 0.151359 15.1933C0.359123 17.3088 1.21025 19.3098 2.5901 20.9268C3.96994 22.5438 5.8122 23.699 7.86872 24.2369C9.92523 24.7748 12.0972 24.6695 14.092 23.9352C16.0869 23.2009 17.8088 21.8729 19.0257 20.13C20.2427 18.3872 20.8963 16.3132 20.8984 14.1875H19.3359Z"/>
</svg>
