<svg width="41" height="50" viewBox="0 0 41 50" xmlns="http://www.w3.org/2000/svg">
  <path fill="#EA1C24" d="M7.55286 42.2224L20.1059 50L32.6455 42.2356C37.3148 39.4446 40.2115 34.3386 40.2115 28.902V7.2223H39.1536C31.4286 7.2223 24.2726 4.73555 20.8996 0.899445L20.1059 0L19.3123 0.899445C15.9393 4.73555 8.76969 7.2223 1.05833 7.2223H0V28.902C0 34.3386 2.89675 39.4446 7.55286 42.2224ZM2.11627 28.9152V9.3254C9.5769 9.12698 16.2698 6.8123 20.1059 3.13508C23.9417 6.8123 30.635 9.12698 38.0952 9.3254V28.902C38.0952 33.598 35.5953 38.0026 31.5476 40.4231L20.1059 47.5133L8.65072 40.4231C4.61658 38.0158 2.11627 33.6112 2.11627 28.9152ZM7.07659 21.098L17.9893 31.9975L33.1086 16.8783L31.6139 15.3836L17.9893 29.0078L8.58484 19.5898L7.07659 21.098Z"/>
</svg>
