<svg width="14" height="14" viewBox="0 0 14 14" xmlns="http://www.w3.org/2000/svg">
  <path d="M6.65256 8.28595C4.70432 8.28595 3.12583 6.39365 3.12583 4.06109C3.12583 1.72879 4.70432 0 6.65256 0C8.6011 0 10.1809 1.72879 10.1809 4.06109C10.1809 6.39365 8.60105 8.28595 6.65256 8.28595ZM1.1666 13.9974C1.1666 13.9974 0.418537 14.0467 0.0890394 13.5927C-0.0889991 13.3474 0.0350226 12.8504 0.156775 12.573L0.454951 11.8935C0.454951 11.8935 1.27958 10.0492 2.21829 8.9805C2.79492 8.32514 3.48075 8.47438 3.92433 8.68752C4.19754 8.81865 4.50646 9.20076 4.73221 9.40326C5.0433 9.68227 5.5925 9.99936 6.49036 10.0172H7.04122C7.93852 9.99936 8.48772 9.68227 8.79855 9.40326C9.02405 9.20081 9.32445 8.80685 9.59519 8.67138C10.0023 8.46757 10.622 8.34219 11.1835 8.98055C12.1225 10.0493 12.8662 11.9271 12.8662 11.9271L13.1718 12.5934C13.2982 12.8689 13.4278 13.3634 13.2547 13.612C12.9458 14.0564 12.2523 13.9974 12.2523 13.9974L1.1666 13.9974Z"/>
</svg>
