<svg xmlns="http://www.w3.org/2000/svg" viewBox="0 0 42 42">
	<g>
		<path d="M34.1,42H7.9c-1.8,0-3.3-1.5-3.3-3.3V3.3C4.7,1.5,6.1,0,7.9,0h26.1c1.8,0,3.3,1.5,3.3,3.3v35.5C37.3,40.5,35.9,42,34.1,42z M7.9,0.9c-1.3,0-2.3,1-2.3,2.3v35.5c0,1.3,1,2.3,2.3,2.3h26.1c1.3,0,2.3-1,2.3-2.3V3.3c0-1.3-1-2.3-2.3-2.3H7.9z"/>
		<rect x="5.1" y="35.5" width="31.7" height="0.9"/>
		<path d="M29.6,32.5c-0.9,0-1.7-0.3-2.4-1c-1.1-1.1-3.7-5.7-3.7-5.8c-0.2-0.4-0.9-1.6,0.1-2.6c1-1,2.2-0.3,2.6-0.1l0,0L26,23.4l0.2-0.4c1.8,1,4.9,2.8,5.8,3.7c0.6,0.6,1,1.5,1,2.4c0,0.9-0.4,1.8-1,2.4C31.3,32.2,30.5,32.5,29.6,32.5z M24.8,23.5c-0.2,0-0.4,0.1-0.6,0.2c-0.3,0.3-0.4,0.7,0.1,1.5c0.7,1.3,2.7,4.7,3.5,5.6c1,1,2.5,1,3.5,0c0.5-0.5,0.7-1.1,0.7-1.7s-0.3-1.3-0.7-1.7c-0.6-0.6-2.6-1.9-5.6-3.5C25.3,23.6,25,23.5,24.8,23.5z"/>
		<path d="M21,29.9c-6.4,0-11.7-5.2-11.7-11.7S14.6,6.5,21,6.5s11.7,5.2,11.7,11.7c0,1.8-0.4,3.5-1.1,5.1l-0.8-0.4c0.7-1.4,1.1-3,1.1-4.7c0-5.9-4.8-10.7-10.7-10.7c-5.9,0-10.7,4.8-10.7,10.7c0,5.9,4.8,10.7,10.7,10.7c1.5,0,3-0.3,4.4-0.9l0.4,0.9C24.3,29.5,22.7,29.9,21,29.9z"/>
		<path d="M21,21.5c-1.8,0-3.3-1.5-3.3-3.3c0-1.8,1.5-3.3,3.3-3.3s3.3,1.5,3.3,3.3C24.3,20,22.8,21.5,21,21.5z M21,15.9c-1.3,0-2.3,1-2.3,2.3c0,1.3,1,2.3,2.3,2.3c1.3,0,2.3-1,2.3-2.3C23.3,16.9,22.3,15.9,21,15.9z"/>
		<rect x="8.9" y="38.3" width="2.8" height="0.9"/>
		<rect x="13.5" y="38.3" width="2.8" height="0.9"/>
	</g>
</svg>
