<svg xmlns="http://www.w3.org/2000/svg" viewBox="0 0 42 42">
	<g>
		<path d="M40,42H2c-0.8,0-1.5-0.7-1.5-1.5V1.5C0.5,0.7,1.1,0,2,0H40c0.8,0,1.5,0.7,1.5,1.5v39.1C41.5,41.3,40.9,42,40,42z M2,1C1.7,1,1.5,1.2,1.5,1.5v39.1C1.5,40.8,1.7,41,2,41H40c0.3,0,0.5-0.2,0.5-0.5V1.5C40.5,1.2,40.3,1,40,1H2z"/>
		<rect x="1" y="5.9" width="40" height="1"/>
		<rect x="3.9" y="2.9" width="2" height="1"/>
		<rect x="7.8" y="2.9" width="2" height="1"/>
		<path d="M23.5,35.8l-1.1-2.2c-0.9,0.1-1.7,0.1-2.6,0l-1.1,2.2L14.2,34l0.8-2.3c-0.7-0.5-1.3-1.1-1.8-1.8l-2.3,0.8l-1.9-4.5l2.2-1.1c-0.1-0.9-0.1-1.7,0-2.6l-2.2-1.1l1.9-4.5l2.3,0.8c0.5-0.7,1.1-1.3,1.8-1.8l-0.8-2.3l4.5-1.9l1.1,2.2c0.9-0.1,1.7-0.1,2.6,0l1.1-2.2l4.5,1.9l-0.8,2.3c0.7,0.5,1.3,1.1,1.8,1.8l2.3-0.8l1.9,4.5l-2.2,1.1c0.1,0.9,0.1,1.7,0,2.6l2.2,1.1l-1.9,4.5l-2.3-0.8c-0.5,0.7-1.1,1.3-1.8,1.8L28,34L23.5,35.8z M15.4,33.4l2.8,1.2l1-2l0.4,0.1c1,0.2,2,0.2,3,0l0.4-0.1l1,2l2.8-1.2l-0.7-2.1l0.3-0.2c0.8-0.6,1.5-1.3,2.1-2.1l0.2-0.3l2.2,0.7l1.2-2.8l-2-1l0.1-0.4c0.2-1,0.2-2,0-3L30,21.8l2-1L30.8,18l-2.1,0.7l-0.2-0.3c-0.6-0.8-1.3-1.5-2.1-2.1l-0.3-0.2l0.7-2.2L24,12.8l-1,2l-0.4-0.1c-1-0.2-2-0.2-3,0l-0.4,0.1l-1-2l-2.8,1.2l0.7,2.1l-0.3,0.2c-0.8,0.6-1.5,1.3-2.1,2.1l-0.2,0.3L11.4,18l-1.2,2.8l2,1l-0.1,0.4c-0.2,1-0.2,2,0,3l0.1,0.4l-2,1l1.2,2.8l2.1-0.7l0.2,0.3c0.6,0.8,1.3,1.5,2.1,2.1l0.3,0.2L15.4,33.4z"/>
		<path d="M21,27.3c-2.2,0-3.9-1.8-3.9-3.9s1.8-3.9,3.9-3.9c2.2,0,3.9,1.8,3.9,3.9S23.2,27.3,21,27.3z M21,20.5c-1.6,0-2.9,1.3-2.9,2.9c0,1.6,1.3,2.9,2.9,2.9s2.9-1.3,2.9-2.9C23.9,21.8,22.6,20.5,21,20.5z"/>
	</g>
</svg>
