<svg xmlns="http://www.w3.org/2000/svg" viewBox="0 0 42 42">
	<g>
		<path d="M32.2,34.4H1.8v-4.5H0v-4.2l0.7-0.6c0.3-0.3,0.4-0.6,0.4-0.9s-0.1-0.7-0.4-0.9L0,22.5v-4.2h34v4.2l-0.7,0.6c-0.3,0.3-0.4,0.6-0.4,0.9c0,0.4,0.1,0.7,0.4,0.9l0.7,0.7v4.2h-1.8V34.4z M2.7,33.5h28.6V29h1.8v-2.9l-0.4-0.4c-0.4-0.4-0.7-1-0.7-1.6c0-0.6,0.2-1.2,0.7-1.6l0.4-0.4v-2.9H0.9v2.9l0.4,0.4c0.4,0.4,0.7,1,0.7,1.6s-0.2,1.2-0.7,1.6l-0.4,0.4V29h1.8V33.5z"/>
		<path d="M10.7,28.1H5.4v-6.3h5.4V28.1z M6.3,27.3h3.6v-4.5H6.3V27.3z"/>
		<path d="M19.7,28.1h-5.4v-6.3h5.4V28.1z M15.2,27.3h3.6v-4.5h-3.6V27.3z"/>
		<path d="M28.6,28.1h-5.4v-6.3h5.4V28.1z M24.1,27.3h3.6v-4.5h-3.6V27.3z"/>
		<rect x="5.4" y="31.3" width="0.9" height="2.7"/>
		<rect x="9.8" y="31.3" width="0.9" height="2.7"/>
		<rect x="14.3" y="31.3" width="0.9" height="2.7"/>
		<rect x="18.8" y="31.3" width="0.9" height="2.7"/>
		<rect x="23.2" y="31.3" width="0.9" height="2.7"/>
		<rect x="27.7" y="31.3" width="0.9" height="2.7"/>
		<path d="M40.2,22.8h-4v-0.9h3.1v-3.6h1.8v-2.9L40.7,15c-0.4-0.4-0.7-1-0.7-1.6c0-0.6,0.2-1.2,0.7-1.6l0.4-0.4V8.5H8.9v2.9l0.4,0.4c0.4,0.4,0.7,1,0.7,1.6c0,0.6-0.2,1.2-0.7,1.6l-0.4,0.4v0.7H8V15l0.7-0.7c0.3-0.3,0.4-0.6,0.4-0.9c0-0.4-0.1-0.7-0.4-0.9L8,11.8V7.6h34v4.2l-0.7,0.7C41.1,12.7,41,13,41,13.4c0,0.4,0.1,0.7,0.4,0.9L42,15v4.2h-1.8V22.8z"/>
		<polygon points="18.8,16.1 17.9,16.1 17.9,12.1 14.3,12.1 14.3,16.1 13.4,16.1 13.4,11.2 18.8,11.2"/>
		<polygon points="27.7,16.1 26.8,16.1 26.8,12.1 23.2,12.1 23.2,16.1 22.3,16.1 22.3,11.2 27.7,11.2"/>
		<polygon points="36.6,16.1 35.7,16.1 35.7,12.1 32.2,12.1 32.2,16.1 31.3,16.1 31.3,11.2 36.6,11.2"/>
	</g>
</svg>
