<svg xmlns="http://www.w3.org/2000/svg" viewBox="0 0 42 42">
	<g>
		<path d="M20.8,22.4h-2.1c-1.3,0-2.3-1-2.3-2.3h0.9c0,0.8,0.6,1.4,1.4,1.4h2.1c0.6,0,1.2-0.5,1.2-1.2c0-0.5-0.3-0.9-0.8-1.1l-3.4-1.1c-0.9-0.3-1.4-1.1-1.4-2c0-1.2,0.9-2.1,2.1-2.1h2.1c1.3,0,2.3,1,2.3,2.3h-0.9c0-0.8-0.6-1.4-1.4-1.4h-2.1c-0.6,0-1.2,0.5-1.2,1.2c0,0.5,0.3,0.9,0.8,1.1l3.4,1.1c0.9,0.3,1.4,1.1,1.4,2C22.9,21.5,21.9,22.4,20.8,22.4z"/>
		<path d="M29.2,22.4h-2.1c-1.3,0-2.3-1-2.3-2.3h0.9c0,0.8,0.6,1.4,1.4,1.4h2.1c0.6,0,1.2-0.5,1.2-1.2c0-0.5-0.3-0.9-0.8-1.1l-3.4-1.1c-0.9-0.3-1.4-1.1-1.4-2c0-1.2,0.9-2.1,2.1-2.1h2.1c1.3,0,2.3,1,2.3,2.3h-0.9c0-0.8-0.6-1.4-1.4-1.4h-2.1c-0.6,0-1.2,0.5-1.2,1.2c0,0.5,0.3,0.9,0.8,1.1l3.4,1.1c0.9,0.3,1.4,1.1,1.4,2C31.3,21.5,30.3,22.4,29.2,22.4z"/>
		<path d="M37.3,22.4h-4.2V14h4.2c1.3,0,2.3,1,2.3,2.3v3.7C39.7,21.4,38.6,22.4,37.3,22.4z M34.1,21.5h3.3c0.8,0,1.4-0.6,1.4-1.4v-3.7c0-0.8-0.6-1.4-1.4-1.4h-3.3V21.5z"/>
		<path d="M3.3,34.1H2.3V2.3C2.3,1,3.4,0,4.7,0h24.3c1.3,0,2.3,1,2.3,2.3v9.3h-0.9V2.3c0-0.8-0.6-1.4-1.4-1.4H4.7c-0.8,0-1.4,0.6-1.4,1.4V34.1z"/>
		<rect x="30.3" y="24.7" width="0.9" height="9.3"/>
		<path d="M28.9,42H4.7c-1.3,0-2.3-1-2.3-2.3v-5.6h0.9v5.6c0,0.8,0.6,1.4,1.4,1.4h24.3c0.8,0,1.4-0.6,1.4-1.4v-5.6h0.9v5.6C31.3,41,30.2,42,28.9,42z"/>
		<rect x="5.6" y="37.3" width="3.7" height="0.9"/>
		<path d="M31.3,35.9h-0.9c0-0.8-0.6-1.4-1.4-1.4H4.7c-0.8,0-1.4,0.6-1.4,1.4H2.3c0-1.3,1-2.3,2.3-2.3h24.3C30.2,33.6,31.3,34.6,31.3,35.9z"/>
	</g>
</svg>
