<svg xmlns="http://www.w3.org/2000/svg" viewBox="0 0 42 42">
	<g>
		<path d="M25.3,35.5c-1,0-1.8-0.5-2.4-1c-0.6-0.4-1.2-0.8-1.9-0.8c-0.7,0-1.3,0.4-1.9,0.8c-0.7,0.5-1.4,1-2.4,1c-1,0-1.8-0.5-2.6-1c-0.7-0.4-1.4-0.9-2.1-0.9c-0.6,0-1.7,0.4-2.8,0.8C7,35.2,5,35.9,4.2,35c-0.9-0.8-0.1-2.4,0.7-3.9c0.4-0.8,0.8-1.6,0.8-2.1c0-0.6-0.4-1.1-0.9-1.7c-0.5-0.7-1.1-1.4-1.1-2.3c0-0.9,0.6-1.7,1.1-2.3c0.5-0.6,0.9-1.1,0.9-1.7c0-0.6-0.4-1.1-0.9-1.6c-0.5-0.6-1.1-1.3-1.1-2.2c0-0.9,0.6-1.6,1.1-2.2c0.4-0.6,0.9-1.1,0.9-1.6c0-0.5-0.4-1.3-0.8-2.2C4.1,9.5,3.3,7.8,4.2,7C5,6.1,7,6.8,9.1,7.6c1.1,0.4,2.2,0.8,2.8,0.8c0.7,0,1.4-0.4,2.1-0.9c0.8-0.5,1.6-1,2.6-1c1,0,1.8,0.5,2.4,1C19.7,8,20.3,8.4,21,8.4c0.7,0,1.3-0.4,1.9-0.8c0.7-0.5,1.4-1,2.4-1c1,0,1.8,0.5,2.6,1c0.7,0.5,1.4,0.9,2.1,0.9c0.6,0,1.7-0.4,2.8-0.8C35,6.8,37,6.1,37.8,7c0.9,0.8,0.1,2.5-0.7,4.1c-0.4,0.8-0.8,1.7-0.8,2.2c0,0.6,0.4,1.1,0.9,1.6c0.5,0.6,1.1,1.3,1.1,2.2c0,0.9-0.6,1.6-1.1,2.2c-0.5,0.6-0.9,1.1-0.9,1.6c0,0.6,0.4,1.1,0.9,1.7c0.5,0.7,1.1,1.4,1.1,2.3c0,0.9-0.6,1.7-1.1,2.3c-0.5,0.6-0.9,1.1-0.9,1.7c0,0.4,0.5,1.3,0.9,2.1c0.8,1.5,1.6,3.1,0.7,3.9c-0.8,0.8-2.8,0.1-4.9-0.6c-1.1-0.4-2.2-0.8-2.8-0.8c-0.7,0-1.4,0.4-2.1,0.9C27.2,35,26.3,35.5,25.3,35.5z M21,32.8c1,0,1.8,0.5,2.4,1c0.6,0.4,1.2,0.8,1.9,0.8c0.7,0,1.4-0.4,2.1-0.9c0.8-0.5,1.6-1,2.6-1c0.8,0,1.9,0.4,3.1,0.9c1.3,0.5,3.5,1.3,3.9,0.8c0.4-0.4-0.3-1.9-0.8-2.8c-0.5-1-1-1.9-1-2.5c0-0.9,0.6-1.6,1.1-2.3c0.5-0.6,0.9-1.1,0.9-1.7c0-0.6-0.4-1.1-0.9-1.7c-0.5-0.6-1.1-1.4-1.1-2.3c0-0.9,0.6-1.6,1.1-2.2c0.5-0.6,0.9-1.1,0.9-1.6c0-0.6-0.4-1.1-0.9-1.6c-0.5-0.6-1.1-1.3-1.1-2.2c0-0.7,0.5-1.6,0.9-2.6c0.5-1,1.3-2.6,0.8-3c-0.5-0.5-2.6,0.3-3.9,0.8C32,9,30.8,9.4,30.1,9.4c-1,0-1.8-0.5-2.6-1c-0.7-0.5-1.4-0.9-2.1-0.9c-0.7,0-1.3,0.4-1.9,0.8c-0.7,0.5-1.4,1-2.4,1c-1,0-1.8-0.5-2.4-1c-0.6-0.4-1.2-0.8-1.9-0.8c-0.7,0-1.4,0.4-2.1,0.9c-0.8,0.5-1.6,1-2.6,1C11.2,9.4,10,9,8.8,8.5C7.5,8,5.3,7.2,4.9,7.6c-0.5,0.4,0.3,2,0.8,3c0.5,1,0.9,1.9,0.9,2.6c0,0.9-0.6,1.6-1.1,2.2c-0.4,0.6-0.9,1.1-0.9,1.6c0,0.6,0.4,1.1,0.9,1.6c0.5,0.6,1.1,1.3,1.1,2.2c0,0.9-0.6,1.6-1.1,2.3c-0.5,0.6-0.9,1.1-0.9,1.7c0,0.6,0.4,1.1,0.9,1.7c0.5,0.6,1.1,1.4,1.1,2.3c0,0.7-0.5,1.6-1,2.5c-0.5,1-1.3,2.5-0.9,2.8c0.5,0.5,2.6-0.3,4-0.8c1.2-0.4,2.4-0.9,3.1-0.9c1,0,1.8,0.5,2.6,1c0.7,0.4,1.4,0.9,2.1,0.9c0.7,0,1.3-0.4,1.9-0.8C19.3,33.3,20,32.8,21,32.8z"/>
		<polygon points="20.1,29.2 16,25.1 16.7,24.4 20,27.8 25.3,21.6 26,22.2"/>
		<rect x="12.6" y="14" width="16.8" height="0.9"/>
		<rect x="17.3" y="17.7" width="7.5" height="0.9"/>
		<polygon points="0.9,8.9 0,8.9 0,2.8 7,2.8 7,3.7 0.9,3.7"/>
		<polygon points="42,8.9 41.1,8.9 41.1,3.7 35,3.7 35,2.8 42,2.8"/>
		<rect x="8.9" y="2.8" width="24.3" height="0.9"/>
		<polygon points="7,39.2 0,39.2 0,33.1 0.9,33.1 0.9,38.3 7,38.3"/>
		<polygon points="42,39.2 35,39.2 35,38.3 41.1,38.3 41.1,33.1 42,33.1"/>
		<rect x="8.9" y="38.3" width="24.3" height="0.9"/>
		<rect y="10.7" width="0.9" height="20.5"/>
		<rect x="41.1" y="10.7" width="0.9" height="20.5"/>
	</g>
</svg>
