<svg xmlns="http://www.w3.org/2000/svg" viewBox="0 0 45 45">
	<path d="M22.5,45c-0.1,0-0.2,0-0.2,0c-1-0.3-18.5-9.5-18.5-18.7V8.4c0-0.5,0.4-0.9,0.9-0.9c4.3,0,15.6-5,17.1-7.1c0.4-0.5,1.2-0.5,1.5,0c1.5,2.1,12.3,7.1,17,7.1c0.5,0,0.9,0.4,0.9,0.9v18.8c0,7.5-17.7,17.6-18.5,17.8C22.7,45,22.6,45,22.5,45z M5.6,9.3v16.9c0,7.1,14.1,15.6,16.9,16.8c2.4-1.2,16.9-10.1,16.9-15.9V9.3c-5-0.5-13.9-4.4-16.9-7C19.4,4.9,10.3,8.8,5.6,9.3z"/>
	<path d="M17.4,30.7c3.1,0,4.3-2,4.3-4.9c0-2.3-0.8-3.3-2-3.8c1.1-0.3,2-1.6,2-3.5c0-2.8-1.6-4.3-4.3-4.3c-2.7,0-4.3,1.6-4.3,4.4v0.9h3v-0.7c0-1.2,0.2-2.1,1.2-2.1c1,0,1.3,0.7,1.3,2c0,1.6-0.4,2.4-1.8,2.4h-0.5v2.2c0.2,0,0.5,0,0.5,0c1.4,0,1.8,0.9,1.8,2.5c0,1.5-0.2,2.3-1.2,2.3c-1,0-1.3-0.7-1.3-2.3v-0.5h-3v0.6C13.1,28.8,14.2,30.7,17.4,30.7z M27.7,30.7c3.3,0,4.3-2.3,4.3-5.5c0-2.6-0.9-4.6-3.4-4.6c-0.9,0-1.7,0.4-2,0.9v-1.6c0-2.5,0.3-3.2,1.2-3.2c1,0,1.1,0.7,1.1,2h2.9v-0.3c0-2.6-1.1-4-4-4c-3.4,0-4.3,2.3-4.3,5.5v5.7C23.3,28.4,24.6,30.7,27.7,30.7z M27.7,28.4c-1,0-1.2-1.1-1.2-2.3v-2.5c0.2-0.3,0.7-0.7,1.2-0.7c1.2,0,1.2,1.2,1.2,2.8C28.9,27.4,28.7,28.4,27.7,28.4z"/>
</svg>
