<svg xmlns="http://www.w3.org/2000/svg" viewBox="0 0 45 45">
<g>
	<path d="M42.1,32.9h-1.9v-2h1.9c0.5,0,0.9-0.4,0.9-0.9v-6.4c0-0.7-0.3-1.1-0.9-1.1h-1.5l-3.5-6.3C37,16.2,36.7,16,36.5,16H29v-2h7.4c0.9,0,1.8,0.5,2.4,1.2l3,5.3h0.3c1.7,0,2.9,1.3,2.9,3.1V30C45,31.6,43.7,32.9,42.1,32.9z"/>
	<polygon points="30,32.9 15,32.9 15,30.9 28,30.9 28,9.5 13.1,9.5 13.1,7.5 30,7.5"/>
	<rect x="2.8" y="30.9" width="4.7" height="2"/>
	<path d="M36.5,37.5c-2.6,0-4.8-2.1-4.8-4.7s2.1-4.7,4.8-4.7s4.8,2.1,4.8,4.7S39.1,37.5,36.5,37.5z M36.5,30.1c-1.5,0-2.8,1.2-2.8,2.7s1.2,2.7,2.8,2.7s2.8-1.2,2.8-2.7S38,30.1,36.5,30.1z"/>
	<path d="M11.2,37.5c-2.6,0-4.8-2.1-4.8-4.7s2.1-4.7,4.8-4.7c2.6,0,4.8,2.1,4.8,4.7S13.9,37.5,11.2,37.5z M11.2,30.1c-1.5,0-2.8,1.2-2.8,2.7s1.2,2.7,2.8,2.7s2.8-1.2,2.8-2.7S12.8,30.1,11.2,30.1z"/>
	<rect x="29" y="30.9" width="3.7" height="2"/>
	<polygon points="38.4,23.5 30.9,23.5 30.9,21.5 36.2,21.5 34.7,19.3 36.4,18.2 38.4,21.3"/>
	<rect y="18.7" width="15.9" height="2"/>
	<rect x="7.5" y="13.1" width="14" height="2"/>
</g>
</svg>
