<svg xmlns="http://www.w3.org/2000/svg" viewBox="0 0 42 42">
	<g>
		<polygon points="32.7,34.9 15.9,34.9 15.9,30.9 16.8,30.9 16.8,34 31.8,34 31.8,30.9 32.7,30.9"/>
		<rect x="21.2" y="30.9" width="0.9" height="3.5"/>
		<rect x="26.5" y="30.9" width="0.9" height="3.5"/>
		<polygon points="12.4,34.9 6.2,34.9 6.2,30.9 7.1,30.9 7.1,34 11.5,34 11.5,30.9 12.4,30.9"/>
		<polygon points="38.5,31.4 0,31.4 0,13.1 3.8,9.3 38.5,9.3 38.5,10.2 4.2,10.2 0.9,13.4 0.9,30.5 38.5,30.5"/>
		<path d="M11.9,27.9c-4.1,0-7.5-3.4-7.5-7.5c0-4.1,3.4-7.5,7.5-7.5s7.5,3.4,7.5,7.5C19.5,24.5,16.1,27.9,11.9,27.9z M11.9,13.7c-3.7,0-6.6,3-6.6,6.6s3,6.6,6.6,6.6s6.6-3,6.6-6.6S15.6,13.7,11.9,13.7z"/>
		<path d="M11.9,23.4c-1.7,0-3.1-1.4-3.1-3.1c0-1.7,1.4-3.1,3.1-3.1s3.1,1.4,3.1,3.1C15,22,13.6,23.4,11.9,23.4z M11.9,18.1c-1.2,0-2.2,1-2.2,2.2c0,1.2,1,2.2,2.2,2.2s2.2-1,2.2-2.2C14.1,19.1,13.2,18.1,11.9,18.1z"/>
		<path d="M17.5,25.1c-1.1,0-2.1-0.3-3-0.9l0.5-0.8c0.8,0.5,1.7,0.8,2.7,0.7l0,0.9C17.5,25.1,17.5,25.1,17.5,25.1z"/>
		<path d="M16.4,19.2l-0.6-0.7c0.7-0.6,1.2-1.4,1.5-2.3l0.8,0.3C17.8,17.5,17.2,18.4,16.4,19.2z"/>
		<path d="M11.3,16.1c-0.4-0.9-1-1.6-1.7-2.2l0.5-0.7c0.9,0.6,1.6,1.5,2,2.5L11.3,16.1z"/>
		<path d="M5.1,20.5l-0.5-0.7c0.9-0.7,1.9-1,3.1-1.1l0.1,0.9C6.8,19.6,5.9,20,5.1,20.5z"/>
		<path d="M9.2,27.2c-0.4-1-0.4-2.2-0.1-3.3l0.9,0.2C9.7,25,9.7,26,10,26.9L9.2,27.2z"/>
		<path d="M38.9,37.1H38V7.1c0-1.2,1-2.2,2.2-2.2H42v0.9h-1.8c-0.7,0-1.3,0.6-1.3,1.3V37.1z"/>
		<rect x="40.7" y="13.3" width="0.9" height="4.4"/>
		<rect x="40.7" y="21.2" width="0.9" height="6.2"/>
		<rect x="22.5" y="14.6" width="10.6" height="0.9"/>
		<rect x="22.5" y="18.1" width="10.6" height="0.9"/>
		<rect x="22.5" y="24.3" width="4.4" height="0.9"/>
		<rect x="28.7" y="24.3" width="4.4" height="0.9"/>
		<rect x="2.2" y="27.9" width="1.8" height="0.9"/>
		<rect x="34.9" y="27.9" width="1.8" height="0.9"/>
		<rect x="34.9" y="11.9" width="1.8" height="0.9"/>
	</g>
</svg>
