<svg xmlns="http://www.w3.org/2000/svg" viewBox="0 0 42 42">
<g>
	<polygon points="38.3,31.3 0.3,31.3 0.3,13.2 4,9.5 38.3,9.5 38.3,10.5 4.4,10.5 1.3,13.6 1.3,30.3 38.3,30.3"/>
	<path d="M38.8,36.9h-1V7.4c0-1.2,1-2.2,2.2-2.2h1.7v1H40c-0.7,0-1.2,0.6-1.2,1.2V36.9z"/>
	<rect x="40.4" y="13.4" width="1" height="4.3"/>
	<rect x="40.4" y="21.3" width="1" height="6.1"/>
	<rect x="31.7" y="15.2" width="1" height="10.4"/>
	<rect x="28.2" y="15.2" width="1" height="10.4"/>
	<rect x="22.9" y="15.2" width="1" height="4.3"/>
	<rect x="22.9" y="21.3" width="1" height="4.3"/>
	<rect x="2.5" y="27.7" width="1.7" height="1"/>
	<rect x="34.8" y="27.7" width="1.7" height="1"/>
	<rect x="34.8" y="12.1" width="1.7" height="1"/>
	<path d="M17,25.2H7.2v-9.7H17V25.2z M8.2,24.2H16v-7.7H8.2V24.2z"/>
	<rect x="9.8" y="13.4" width="1" height="2.6"/>
	<rect x="13.3" y="13.4" width="1" height="2.6"/>
	<rect x="9.8" y="24.7" width="1" height="2.6"/>
	<rect x="13.3" y="24.7" width="1" height="2.6"/>
	<rect x="5.1" y="18.1" width="2.6" height="1"/>
	<rect x="5.1" y="21.6" width="2.6" height="1"/>
	<rect x="16.5" y="21.6" width="2.6" height="1"/>
	<rect x="16.5" y="18.1" width="2.6" height="1"/>
	<polygon points="32.7,34.8 16,34.8 16,30.8 17,30.8 17,33.8 31.7,33.8 31.7,30.8 32.7,30.8"/>
	<rect x="21.2" y="30.8" width="1" height="3.5"/>
	<rect x="26.4" y="30.8" width="1" height="3.5"/>
	<polygon points="12.6,34.8 6.4,34.8 6.4,30.8 7.4,30.8 7.4,33.8 11.6,33.8 11.6,30.8 12.6,30.8"/>
</g>
</svg>
