<svg xmlns="http://www.w3.org/2000/svg" viewBox="0 0 26 26">
	<path d="M23.3,17.7c-0.1-0.1-0.4-0.9-2.1-2.4c-1.8-1.6-1.5-1.4,0.6-4.2c1.3-1.7,1.8-2.8,1.6-3.2c-0.2-0.4-1.1-0.3-1.1-0.3l-3.2,0c0,0-0.2,0-0.4,0.1C18.6,7.7,18.5,8,18.5,8s-0.5,1.3-1.2,2.5c-1.4,2.4-2,2.5-2.2,2.4c-0.5-0.3-0.4-1.4-0.4-2.1c0-2.3,0.4-3.3-0.7-3.5C13.7,7.1,13.5,7,12.6,7c-1.1,0-2.1,0-2.6,0.3C9.6,7.4,9.3,7.8,9.5,7.9c0.2,0,0.7,0.1,0.9,0.5c0.3,0.4,0.3,1.4,0.3,1.4s0.2,2.7-0.4,3.1c-0.4,0.2-1-0.2-2.3-2.4C7.4,9.3,6.9,8.1,6.9,8.1S6.8,7.8,6.7,7.7C6.5,7.6,6.2,7.5,6.2,7.5l-3,0c0,0-0.5,0-0.6,0.2c-0.1,0.2,0,0.5,0,0.5s2.4,5.5,5,8.3c2.4,2.5,5.2,2.4,5.2,2.4H14c0,0,0.4,0,0.6-0.3c0.2-0.2,0.2-0.6,0.2-0.6s0-1.7,0.8-1.9c0.8-0.2,1.8,1.6,2.8,2.4c0.8,0.5,1.4,0.4,1.4,0.4l2.8,0C22.6,18.9,24,18.9,23.3,17.7z"/>
</svg>
