<svg width="79" height="79" viewBox="0 0 79 79" fill="none" xmlns="http://www.w3.org/2000/svg">
<circle cx="39.5" cy="39.5" r="39" fill="#292929" stroke="#474747"/>
<path d="M33.066 29.6C34.7233 29.6 35.9773 30.0327 36.828 30.898C37.6933 31.7487 38.126 33.0027 38.126 34.66V39.94C38.126 41.5973 37.6933 42.8587 36.828 43.724C35.9773 44.5747 34.7233 45 33.066 45H24.486V29.6H33.066ZM34.166 34.66C34.166 33.34 33.506 32.68 32.186 32.68H28.446V41.92H32.186C33.506 41.92 34.166 41.26 34.166 39.94V34.66ZM40.32 29.6H49.56C51.1 29.6 52.2147 29.952 52.904 30.656C53.608 31.3453 53.96 32.46 53.96 34V35.98C53.96 37.1973 53.7547 38.1433 53.344 38.818C52.948 39.4927 52.31 39.94 51.43 40.16L54.18 45H49.89L47.36 40.38H44.28V45H40.32V29.6ZM50 34C50 33.12 49.56 32.68 48.68 32.68H44.28V37.3H48.68C49.56 37.3 50 36.86 50 35.98V34Z" fill="#666666"/>
</svg>
