<svg width="21" height="24" viewBox="0 0 21 24" fill="none" xmlns="http://www.w3.org/2000/svg">
  <path d="M20.4759 12.4935C19.9573 11.975 19.1166 11.9749 18.5981 12.4936L11.216 19.8758C10.2688 20.823 9.0096 21.3446 7.67014 21.3446C6.33077 21.3446 5.07147 20.823 4.12425 19.8757C3.17703 18.9285 2.65538 17.6693 2.65538 16.3298C2.65538 14.9904 3.17711 13.731 4.12425 12.7839L13.6029 3.30517C14.471 2.43717 15.8835 2.43724 16.7515 3.30509C17.172 3.72564 17.4036 4.28482 17.4036 4.87953C17.4036 5.47416 17.172 6.03318 16.7515 6.45381L8.70897 14.4967C8.1905 15.0151 8.1905 15.8558 8.70905 16.3744C9.2276 16.8929 10.0682 16.8929 10.5868 16.3743L18.6293 8.33146C19.5515 7.40938 20.0593 6.18349 20.0593 4.87945C20.0593 3.57556 19.5515 2.3496 18.6293 1.42744C16.726 -0.475786 13.6289 -0.475864 11.7254 1.42751L2.24663 10.9062C0.797846 12.355 0 14.2812 0 16.3299C0 18.3786 0.797807 20.3048 2.24663 21.7535C3.69538 23.2021 5.62155 24 7.67022 24C9.71889 24 11.6451 23.2021 13.0937 21.7534L20.4758 14.3711C20.9944 13.8527 20.9944 13.012 20.4759 12.4935Z"/>
</svg>
