<svg width="23" height="23" viewBox="0 0 23 23" xmlns="http://www.w3.org/2000/svg">
  <path d="M23.0001 4.59999H4.71503L3.10501 0H0V2.30002H1.49498L7.24501 19.5501H19.5501V17.25H8.85503L8.16503 14.95H19.5501L23.0001 4.59999ZM9.20004 23C9.83516 23 10.35 22.4851 10.35 21.85C10.35 21.2149 9.83516 20.7 9.20004 20.7C8.56492 20.7 8.05005 21.2149 8.05005 21.85C8.05005 22.4851 8.56492 23 9.20004 23ZM18.4 21.85C18.4 22.4851 17.8851 23 17.25 23C16.6149 23 16.1 22.4851 16.1 21.85C16.1 21.2149 16.6149 20.7 17.25 20.7C17.8851 20.7 18.4 21.2149 18.4 21.85Z"/>
</svg>
