<svg width="50" height="40" viewBox="0 0 50 40" xmlns="http://www.w3.org/2000/svg">
  <path fill="#EA1C24" fill-rule="evenodd" clip-rule="evenodd" d="M11.1702 27.6595C8.11832 27.6595 5.61176 29.9963 5.34285 32.9785H2.12753V2.12753H28.7234V32.9785H16.9975C16.7286 29.9963 14.222 27.6595 11.1702 27.6595ZM0 35.1064H5.53925C6.23395 37.5621 8.49211 39.3615 11.1702 39.3615C13.8482 39.3615 16.1064 37.5621 16.8011 35.1064H33.1991C33.8937 37.5621 36.1516 39.3615 38.8297 39.3615C41.508 39.3615 43.7659 37.5621 44.4606 35.1065H49.9999V18.8031L38.6037 3.19156H30.8509V0H0V35.1064ZM47.8724 32.9785H44.657C44.3881 29.9963 41.8819 27.6595 38.8297 27.6595C35.7778 27.6595 33.2716 29.9963 33.0027 32.9785H30.8509V20.2125H47.8724V32.9785ZM37.5265 5.31909L46.8436 18.085H30.8509V5.31909H37.5265ZM11.1702 29.787C9.12211 29.787 7.44689 31.4626 7.44689 33.5107C7.44689 35.5584 9.12211 37.234 11.1702 37.234C13.2182 37.234 14.8934 35.5584 14.8934 33.5107C14.8934 31.4626 13.2182 29.787 11.1702 29.787ZM38.8297 29.787C36.782 29.787 35.1064 31.4626 35.1064 33.5107C35.1064 35.5584 36.782 37.234 38.8297 37.234C40.8777 37.234 42.5533 35.5584 42.5533 33.5107C42.5533 31.4626 40.8777 29.787 38.8297 29.787ZM4.99994 15.0131L12.766 22.7791L24.8007 10.7581L23.2844 9.2418L12.766 19.7739L6.50257 13.5105L4.99994 15.0131Z"/>
</svg>
