<svg width="24" height="24" viewBox="0 0 24 24" xmlns="http://www.w3.org/2000/svg">
  <path d="M16.8275 9.60938L12.6556 0H11.3318L7.15992 9.60938H0V11.4844H1.43316L2.79722 20.8271L2.80261 20.8601C2.96616 21.7556 3.50138 22.5711 4.30964 23.1563C5.061 23.7004 5.9798 24 6.89686 24H17.1031C18.0191 24 18.9367 23.7001 19.6866 23.1556C20.4887 22.5733 21.0247 21.7609 21.1958 20.8681L21.1998 20.8471L22.5553 11.4844H24V9.60938H16.8275ZM11.9937 3.18366L14.7834 9.60938H9.20405L11.9937 3.18366ZM19.3507 20.5335C19.1703 21.4127 18.167 22.125 17.1031 22.125H6.89686C5.82347 22.125 4.81931 21.4142 4.64977 20.5375L3.32803 11.4844H20.6607L19.3507 20.5335ZM14.5719 13.3594H12.6969V20.25H14.5719V13.3594ZM17.8531 13.3594V18.375C17.8531 20.2969 15.9781 20.25 15.9781 20.25V13.3594H17.8531ZM11.3375 13.3594H9.46248V20.25H11.3375V13.3594ZM8.00936 13.3594V20.25C8.00936 20.25 6.13436 20.2969 6.13436 18.375V13.3594H8.00936Z"/>
</svg>
