<svg width="20" height="12" viewBox="0 0 20 12" fill="none" xmlns="http://www.w3.org/2000/svg">
<g clip-path="url(#clip0)">
<path d="M18.85 9.71667V9.51667H18.9333V9.48333H18.7333V9.51667H18.8167V9.71667H18.85ZM19.2333 9.71667V9.48333H19.1667L19.1 9.65L19.0333 9.48333H18.9667V9.71667H19.0167V9.53333L19.0833 9.68333H19.1333L19.2 9.53333V9.71667H19.2333ZM9.18333 10.8833C9.23333 10.9167 9.28333 10.9667 9.33333 11C8.38333 11.6333 7.23333 12 6.01667 12C2.68333 12 0 9.31667 0 6C0 2.68333 2.68333 0 6 0C7.23333 0 8.36667 0.366667 9.31667 1C9.26667 1.03333 9.21667 1.08333 9.16667 1.11667C7.75 2.35 6.95 4.11667 6.95 6C6.95 7.86667 7.76667 9.65 9.18333 10.8833ZM13.4167 0C12.1833 0 11.05 0.366667 10.1 1C10.15 1.03333 10.2 1.08333 10.25 1.11667C11.6667 2.35 12.4667 4.11667 12.4667 6C12.4667 7.86667 11.65 9.65 10.25 10.8833C10.2 10.9167 10.15 10.9667 10.1 11C11.05 11.6333 12.2 12 13.4167 12C16.7333 12 19.4167 9.31667 19.4167 6C19.4167 2.68333 16.7333 0 13.4167 0ZM9.7 1.28333C9.61667 1.35 9.55 1.4 9.46667 1.46667C8.21667 2.56667 7.41667 4.2 7.41667 6C7.41667 7.8 8.21667 9.43333 9.48333 10.5333C9.55 10.6 9.63333 10.6667 9.71667 10.7167C9.8 10.65 9.86667 10.6 9.95 10.5333C11.2 9.43333 12 7.8 12 6C12 4.2 11.2 2.56667 9.93333 1.46667C9.86667 1.41667 9.78333 1.35 9.7 1.28333Z" fill="white"/>
</g>
<defs>
<clipPath id="clip0">
<rect width="19.4167" height="12" fill="white"/>
</clipPath>
</defs>
</svg>
