<svg width="31" height="8" viewBox="0 0 31 8" fill="none" xmlns="http://www.w3.org/2000/svg">
<path fill-rule="evenodd" clip-rule="evenodd" d="M1.26496 0H3.62395C4.37609 0 4.99147 0.205129 5.33336 0.615387C5.64105 0.957269 5.74361 1.47009 5.64105 2.11967C5.40173 3.58976 4.51284 4.3419 2.97437 4.3419H2.22223C2.05129 4.3419 1.91454 4.44446 1.88035 4.6154L1.64103 6.22225C1.64103 6.39319 1.50428 6.49575 1.33334 6.49575H0.205129H0.170941C0.0683764 6.46157 0 6.359 0 6.25644L0.957269 0.273505C0.957269 0.102565 1.09402 0 1.26496 0ZM2.49574 3.04275C3.11112 3.04275 3.7607 3.04275 3.86326 2.18804C3.93164 1.88035 3.89745 1.67522 3.7607 1.53847C3.55557 1.29915 3.14531 1.29915 2.73505 1.29915H2.56411C2.49574 1.29915 2.39317 1.36753 2.39317 1.47009L2.15386 3.04275H2.49574ZM9.47013 2.15386H10.5983C10.7351 2.18804 10.8035 2.29061 10.8035 2.39317L10.1539 6.22225C10.1539 6.39319 10.0171 6.49575 9.8462 6.49575H8.85474H8.82055C8.71799 6.46157 8.64961 6.359 8.64961 6.25644L8.6838 5.94874C8.6838 5.94874 8.13679 6.59832 7.14533 6.59832C6.56413 6.59832 6.0855 6.42738 5.74361 6.01712C5.36754 5.60686 5.23079 4.95729 5.33336 4.30771C5.53849 2.97437 6.59832 2.05129 7.82909 2.05129C8.3761 2.05129 8.92311 2.18804 9.16243 2.52993L9.23081 2.63249L9.265 2.3248C9.29918 2.22223 9.36756 2.15386 9.47013 2.15386ZM7.76072 5.40173C8.41029 5.40173 8.92311 4.99147 9.02568 4.3419C9.09406 4.03421 9.02568 3.7607 8.85474 3.52138C8.6838 3.31625 8.41029 3.21369 8.1026 3.21369C7.45302 3.21369 6.9402 3.65814 6.83764 4.30771C6.76926 4.6154 6.83764 4.88891 7.00858 5.09404C7.17952 5.29917 7.41884 5.40173 7.76072 5.40173ZM15.4189 2.15386H16.5471C16.5871 2.15386 16.6155 2.16559 16.6389 2.17531C16.6555 2.18218 16.6697 2.18804 16.6838 2.18804C16.7522 2.25642 16.7864 2.39317 16.718 2.46155L12.9573 7.86328C12.8889 7.93166 12.7864 8.00003 12.6838 8.00003H11.5556C11.5214 8.00003 11.4872 8.00003 11.453 7.96585C11.3847 7.89747 11.3505 7.79491 11.4189 7.69234L12.5812 6.05131L11.3505 2.42736V2.35898C11.3505 2.25642 11.453 2.15386 11.5556 2.15386H12.6496C12.7864 2.15386 12.9231 2.25642 12.9573 2.39317L13.6069 4.58122L15.1454 2.29061C15.2137 2.22223 15.3163 2.15386 15.4189 2.15386ZM17.9488 0H20.2736C21.0599 0 21.6411 0.205129 22.0172 0.581199C22.3249 0.923081 22.4274 1.4359 22.3249 2.08548C22.0855 3.55557 21.1967 4.30771 19.6582 4.30771H18.906C18.7693 4.30771 18.6325 4.41028 18.5984 4.58122L18.3248 6.29063C18.2907 6.42738 18.1881 6.49576 18.0855 6.49576H16.8889H16.8548C16.7522 6.46157 16.6838 6.359 16.6838 6.25644L17.6411 0.273505C17.6411 0.102565 17.7778 0 17.9488 0ZM19.1454 3.04275C19.7949 3.04275 20.4103 3.04275 20.5471 2.18804C20.6155 1.88035 20.5471 1.67522 20.4445 1.53847C20.2394 1.29915 19.8291 1.29915 19.4189 1.29915H19.2479C19.1454 1.29915 19.0428 1.36753 19.0428 1.47009L18.8035 3.04275H19.1454ZM26.1539 2.15386H27.2821C27.4189 2.18804 27.4873 2.29061 27.4531 2.39317L26.8377 6.22225C26.8377 6.39319 26.7009 6.49576 26.53 6.49576H25.5385H25.5044C25.4018 6.46157 25.3334 6.359 25.3334 6.25644L25.3676 5.94874C25.3676 5.94874 24.8206 6.59832 23.8291 6.59832C23.2479 6.59832 22.7693 6.42738 22.4274 6.01712C22.0514 5.60686 21.9146 4.95729 22.0172 4.30771C22.2223 2.97437 23.2821 2.05129 24.5129 2.05129C25.0599 2.05129 25.6069 2.18804 25.8462 2.52993L25.9146 2.63249L25.9488 2.3248C25.983 2.22223 26.0514 2.15386 26.1539 2.15386ZM24.4445 5.40173C25.0941 5.40173 25.6069 4.99147 25.7095 4.3419C25.7779 4.03421 25.7095 3.7607 25.5385 3.52138C25.3676 3.31625 25.0941 3.21369 24.7864 3.21369C24.1368 3.21369 23.624 3.65814 23.5214 4.30771C23.4531 4.61541 23.5214 4.88891 23.6924 5.09404C23.8633 5.29917 24.1368 5.40173 24.4445 5.40173ZM27.624 6.29063L28.5813 0.170941C28.6155 0.0683764 28.6839 0 28.7522 0.0341882H29.8463H29.8804C29.983 0.0683764 30.0514 0.170941 30.0514 0.273505L29.0941 6.25644C29.0941 6.42738 28.9574 6.52994 28.7864 6.52994H27.8292H27.795C27.6924 6.49576 27.624 6.39319 27.624 6.29063Z" fill="white"/>
</svg>
