<svg width="24" height="24" viewBox="0 0 24 24" fill="none" xmlns="http://www.w3.org/2000/svg">
  <path d="M23.505 0.494995C23.0897 0.079729 22.5002 -0.0885523 21.9283 0.044854C21.9257 0.0454634 21.9231 0.0460727 21.9204 0.046729L3.07298 4.65937C1.26366 5.10215 0 6.71235 0 8.57507V11.0625C0 11.9687 0.718078 12.7104 1.61517 12.7484L8.70469 13.9552C8.8545 13.9807 9.00736 13.932 9.1148 13.8246L17.4697 5.46965C17.7626 5.17678 18.2374 5.17678 18.5303 5.46965C18.8232 5.76257 18.8232 6.23742 18.5303 6.53034L10.1755 14.8852C10.068 14.9927 10.0193 15.1455 10.0448 15.2954L11.2515 22.3849C11.2896 23.2819 12.0313 24 12.9375 24H15.4249C17.2876 24 18.8978 22.7363 19.3406 20.9271L23.9532 2.07956C23.9539 2.07693 23.9545 2.07431 23.9551 2.07168C24.0886 1.49971 23.9203 0.910307 23.505 0.494995Z"/>
</svg>
