<svg width="20" height="20" viewBox="0 0 20 20" fill="none" xmlns="http://www.w3.org/2000/svg">
  <path d="M15.7775 3.7565C13.7063 1.68528 10.3357 1.6853 8.26449 3.7565L2.62974 9.39125C1.17996 10.841 1.17996 13.2006 2.62974 14.6504C4.07952 16.1002 6.43909 16.1002 7.88887 14.6504L11.6454 10.8939C12.8882 9.65101 12.8882 7.62893 11.6454 6.38606L10.1428 7.88866C10.5569 8.30284 10.5569 8.9771 10.1428 9.39128L6.38627 13.1478C5.76482 13.7692 4.75381 13.7692 4.13239 13.1478C3.51097 12.5264 3.51097 11.5153 4.13239 10.8939L9.76714 5.25915C11.01 4.01628 13.0321 4.01628 14.275 5.25915C15.5178 6.50202 15.5178 8.52409 14.275 9.76696L7.51323 16.5287L9.01583 18.0313L15.7775 11.2696C17.8487 9.1983 17.8487 5.82773 15.7775 3.7565V3.7565Z" fill="#666666"/>
</svg>
