<svg width="25" height="8" viewBox="0 0 25 8" fill="none" xmlns="http://www.w3.org/2000/svg">
<path fill-rule="evenodd" clip-rule="evenodd" d="M17.8581 0.327641C17.4656 0.171927 16.8431 0 16.0734 0C14.1083 0 12.7245 1.04788 12.716 2.54604C12.6997 3.65138 13.7067 4.26531 14.4599 4.63387C15.2298 5.01048 15.4915 5.25629 15.4915 5.59198C15.4837 6.10755 14.8694 6.3452 14.2965 6.3452C13.5021 6.3452 13.0764 6.22267 12.4295 5.93584L12.1674 5.81288L11.889 7.54042C12.3557 7.75304 13.2155 7.94172 14.1083 7.94999C16.1962 7.94999 17.5555 6.91832 17.5716 5.3218C17.5796 4.44573 17.0478 3.77445 15.9013 3.22592C15.2053 2.87379 14.7791 2.63636 14.7791 2.27608C14.7873 1.94854 15.1396 1.61307 15.9253 1.61307C16.5722 1.59664 17.0475 1.75213 17.4075 1.90774L17.5875 1.98946L17.8581 0.327641ZM10.6446 7.83527H8.65469L9.89931 0.139468H11.8891L10.6446 7.83527ZM21.2973 2.9557C21.2973 2.9557 20.6667 4.66682 20.5029 5.10893H22.1568C22.075 4.72416 21.6982 2.88204 21.6982 2.88204L21.5591 2.21892C21.5006 2.38954 21.416 2.62406 21.3589 2.7824L21.3588 2.78266L21.3587 2.78279C21.32 2.89012 21.294 2.96234 21.2973 2.9557ZM21.42 0.139468H22.9591L24.5645 7.83518H22.722C22.722 7.83518 22.5417 6.95095 22.4846 6.68076H19.9297C19.8559 6.88533 19.5121 7.83518 19.5121 7.83518H17.4242L20.3799 0.777994C20.5847 0.278533 20.9453 0.139468 21.42 0.139468ZM6.99263 0.139468L5.04387 5.38727L4.83092 4.32296C4.83087 4.32279 4.83082 4.32263 4.83078 4.32247L4.13496 0.786372C4.02038 0.294856 3.66825 0.155682 3.2343 0.139468H0.0327527L0 0.294964C0.780836 0.494639 1.47922 0.782369 2.09116 1.14012L3.86475 7.82711H5.96901L9.09678 0.139468H6.99263Z" fill="white"/>
</svg>
