<?xml version="1.0" standalone="no"?>
<!DOCTYPE svg PUBLIC "-//W3C//DTD SVG 20010904//EN"
 "http://www.w3.org/TR/2001/REC-SVG-20010904/DTD/svg10.dtd">
<svg version="1.0" xmlns="http://www.w3.org/2000/svg"
 width="140.000000pt" height="140.000000pt" viewBox="0 0 140.000000 140.000000"
 preserveAspectRatio="xMidYMid meet">
<metadata>
Created by potrace 1.11, written by Peter Selinger 2001-2013
</metadata>
<g transform="translate(0.000000,140.000000) scale(0.100000,-0.100000)"
fill="#000000" stroke="none">
<path d="M6 1183 c3 -120 7 -239 8 -265 3 -89 16 -61 17 38 1 54 3 142 4 194
2 52 4 120 4 151 l1 56 213 -3 c423 -5 527 -9 527 -16 0 -5 -6 -8 -13 -8 -39
0 -327 -236 -327 -268 0 -6 -4 -12 -9 -14 -26 -10 -142 -221 -128 -234 3 -3
-3 -31 -14 -62 -44 -129 -43 -234 3 -332 22 -47 87 -130 101 -130 3 0 3 19 1
43 -3 36 1 52 28 93 64 98 178 185 278 213 101 28 250 14 338 -31 124 -63 201
-226 189 -403 -3 -38 -6 -70 -7 -70 -2 0 -8 -30 -13 -65 -4 -28 -14 -34 -53
-36 -30 -2 -34 0 -29 17 3 10 7 28 10 38 34 118 26 246 -21 349 -19 40 -29 37
-13 -4 27 -70 7 -240 -43 -356 l-20 -48 -52 -1 c-28 -1 -66 -2 -84 -2 -63 -1
-31 -17 36 -18 37 0 156 -3 264 -6 l197 -5 0 701 0 701 -700 0 -700 0 7 -217z
m1300 148 c8 -1 13 -32 14 -93 1 -51 3 -137 5 -190 l3 -98 -31 -1 c-71 -2
-270 -17 -321 -24 -81 -11 -126 -15 -126 -12 0 2 29 23 65 46 90 60 86 62 -28
12 -56 -24 -68 -21 -63 19 3 31 39 83 50 73 3 -3 6 1 6 10 0 8 3 17 8 19 4 2
27 25 52 51 44 47 51 62 12 30 -11 -10 -37 -32 -59 -50 -21 -17 -49 -41 -63
-53 -47 -42 -92 -74 -106 -76 -8 -1 -37 -25 -65 -53 -45 -45 -51 -49 -56 -31
-8 29 -14 25 -48 -27 -16 -26 -46 -55 -65 -65 -41 -21 -146 -25 -153 -5 -5 13
43 107 56 107 4 0 7 5 7 10 0 26 131 155 225 222 61 43 205 123 205 113 0 -2
27 7 60 20 33 13 60 22 60 20 0 -3 12 0 26 6 15 5 43 12 63 15 20 3 38 8 40
10 3 3 185 -1 227 -5z m-190 -540 c69 -25 135 -63 184 -108 37 -32 39 -37 42
-103 2 -39 1 -70 -2 -70 -3 0 -21 28 -40 62 -65 114 -159 184 -286 214 -129
30 -131 32 -41 28 51 -2 110 -12 143 -23z m-714 -63 c-7 -7 -12 -8 -12 -2 0
14 12 26 19 19 2 -3 -1 -11 -7 -17z m387 -32 c-2 -2 -24 -5 -49 -7 -25 -1 -49
-5 -55 -8 -5 -3 -16 -6 -22 -7 -20 -3 -136 -61 -161 -81 -91 -70 -152 -148
-152 -195 0 -41 -12 -34 -37 20 -33 72 -41 104 -37 158 6 105 21 148 22 67 1
-79 5 -93 29 -99 14 -4 36 4 65 24 59 40 133 80 155 84 10 2 20 6 23 10 3 4
17 9 30 12 14 3 36 8 50 11 14 4 48 9 75 12 28 3 52 7 54 9 2 2 7 2 9 -1 3 -3
3 -7 1 -9z"/>
<path d="M16 835 c4 -8 8 -15 10 -15 2 0 4 7 4 15 0 8 -4 15 -10 15 -5 0 -7
-7 -4 -15z"/>
<path d="M818 18 c-9 -5 -6 -7 9 -5 12 2 25 6 28 8 8 9 -23 6 -37 -3z"/>
</g>
</svg>
