<?xml version="1.0" encoding="utf-8"?>
<!-- Generator: Adobe Illustrator 19.2.1, SVG Export Plug-In . SVG Version: 6.00 Build 0)  -->
<svg version="1.1" id="Слой_1" xmlns="http://www.w3.org/2000/svg" xmlns:xlink="http://www.w3.org/1999/xlink" x="0px" y="0px"
	 viewBox="0 0 30 30" style="enable-background:new 0 0 30 30;" xml:space="preserve">
<style type="text/css">
	.st0{fill:#4E5865;}
</style>
<path d="M22.3,9H7.8v12h14.5V9z M19.8,18.5h-9.5v-7h9.5V18.5z M12.8,3h-2.5V0.5H7.8v5h5V3z M19.8,3h-2.5V0.5h-2.5v5h5V3z M14.8,29.5h2.5V27h2.5v-2.5h-5V29.5z M25,3h-0.8V0.5h-2.5v5H25c0.4,0,0.8,0.3,0.8,0.8v17.5c0,0.4-0.3,0.8-0.8,0.8h-3.3v5h2.5V27H25c1.8,0,3.3-1.5,3.3-3.3V6.3C28.3,4.5,26.8,3,25,3z M7.8,29.5h2.5V27h2.5v-2.5h-5V29.5z M1.8,6.3v17.5C1.8,25.5,3.2,27,5,27h0.8v-2.5H5c-0.4,0-0.8-0.3-0.8-0.8V6.3c0-0.4,0.3-0.8,0.8-0.8h0.8V3H5C3.2,3,1.8,4.5,1.8,6.3z"/>
</svg>
