<svg xmlns="http://www.w3.org/2000/svg" viewBox="0 0 30 30">

	<path d="M28.2,13.8L27.4,13l-0.5-2.5c-0.3-1.4-1.5-2.3-2.9-2.3h-3.5V3.7H1.9v3.2H0.5v2.3h3.6V5.9h14v11.3h2.3v-6.8h3.5c0.3,0,0.6,0.2,0.7,0.5l0.7,3.2l1.4,1.3c0.3,0.3,0.5,0.7,0.5,1.2v4.7h-1.1c-0.5-1.6-2-2.7-3.7-2.7s-3.2,1.1-3.7,2.7h-6.2c-0.5-1.6-2-2.7-3.7-2.7s-3.2,1.1-3.7,2.7H4.1v-4.1h1.8V15H0.5v2.3h1.4v6.3h3.3c0.5,1.6,2,2.7,3.7,2.7s3.2-1.1,3.7-2.7h6.2c0.5,1.6,2,2.7,3.7,2.7c1.7,0,3.2-1.1,3.7-2.7h3.3v-6.9C29.5,15.6,29,14.5,28.2,13.8z M8.9,24.1c-0.9,0-1.6-0.7-1.6-1.6s0.7-1.6,1.6-1.6s1.6,0.7,1.6,1.6S9.8,24.1,8.9,24.1z M22.5,24.1c-0.9,0-1.6-0.7-1.6-1.6s0.7-1.6,1.6-1.6s1.6,0.7,1.6,1.6S23.4,24.1,22.5,24.1z M8.2,10.9H0.5v2.3h7.7V10.9z"/>
</svg>
