<?xml version="1.0" encoding="utf-8"?>
<!-- Generator: Adobe Illustrator 19.2.1, SVG Export Plug-In . SVG Version: 6.00 Build 0)  -->
<svg version="1.1" id="Слой_1" xmlns="http://www.w3.org/2000/svg" xmlns:xlink="http://www.w3.org/1999/xlink" x="0px" y="0px"
	 viewBox="0 0 30 30" style="enable-background:new 0 0 30 30;" xml:space="preserve">
<style type="text/css">
	.st0{fill:#4E5865;}
</style>
<path d="M1.9,4.1v8.5c0,8.3,5.5,14.8,13.1,16.9c7.5-2.1,13.1-8.6,13.1-16.9V4.1C20-0.7,10-0.7,1.9,4.1z M25.7,12.6c0,6.7-4.2,12.3-10.7,14.4C8.5,24.9,4.3,19.3,4.3,12.6v-7c3.3-1.7,7-2.6,10.7-2.6s7.4,0.9,10.7,2.6V12.6z M9.9,12.9l-1.7,1.7l5.6,5.2l8.8-9.2l-1.7-1.7l-7.1,7.5L9.9,12.9z"/>
</svg>
