<svg width="61" height="13" viewBox="0 0 61 13" fill="#AEBCCA" xmlns="http://www.w3.org/2000/svg">
<path d="M58.4105 1.64634C58.4105 0.902439 58.967 0.292683 59.6485 0.292683C59.9778 0.292683 60.2845 0.439024 60.523 0.682927C60.7615 0.939024 60.8864 1.28049 60.8864 1.63415C60.8864 1.9878 60.7615 2.32927 60.523 2.58537C60.2845 2.84146 59.9778 2.9878 59.6485 2.9878C58.967 2.9878 58.4105 2.39024 58.4105 1.64634ZM58.3083 1.64634C58.3083 2.45122 58.9103 3.10976 59.6598 3.10976C60.0233 3.10976 60.3526 2.96341 60.6025 2.68293C60.8524 2.40244 61 2.03659 61 1.64634C61 1.2561 60.8637 0.890244 60.6025 0.609756C60.3413 0.329268 60.0119 0.182927 59.6598 0.182927C58.9103 0.182927 58.3083 0.841463 58.3083 1.64634ZM59.1488 2.5122H59.3418V1.82927H59.7734C59.8416 1.82927 59.8983 1.82927 59.9438 1.85366C60.0006 1.89024 60.0346 1.96341 60.046 2.06098L60.0687 2.32927C60.0687 2.39024 60.0687 2.42683 60.0687 2.45122C60.0801 2.47561 60.0801 2.4878 60.0914 2.5H60.3299V2.46341C60.2959 2.45122 60.2845 2.41463 60.2731 2.36585C60.2618 2.34146 60.2618 2.29268 60.2618 2.23171L60.2504 2.02439C60.2504 1.92683 60.2277 1.86585 60.205 1.82927C60.1709 1.79268 60.1255 1.7561 60.0687 1.73171C60.1369 1.69512 60.1823 1.64634 60.2164 1.58537C60.2504 1.52439 60.2618 1.45122 60.2618 1.35366C60.2618 1.17073 60.1936 1.04878 60.0687 0.97561C60.0006 0.939024 59.9097 0.926829 59.8075 0.926829H59.1601L59.1488 2.5122ZM59.3305 1.64634V1.09756H59.7848C59.8529 1.09756 59.9097 1.10976 59.9438 1.13415C60.0119 1.17073 60.046 1.2561 60.046 1.36585C60.046 1.47561 60.0233 1.54878 59.9665 1.58537C59.9211 1.62195 59.8529 1.64634 59.7621 1.64634H59.3305V1.64634ZM5.51964 3.65854L0 12.9756H3.77062L9.08583 4.07317L5.51964 3.65854ZM28.2456 3.45122V0H17.5129C16.0478 0.097561 15.4118 0.853658 14.9348 1.39024C14.4238 1.96341 14.1398 3.17073 14.1398 3.17073V0.0243902H8.42711C7.99553 0.0243902 7.58667 0.219512 7.28002 0.682927C6.96202 1.13415 5.65593 3.45122 5.65593 3.45122H28.2456ZM57.4338 3.45122V0H45.9516C44.4979 0.097561 43.8505 0.853658 43.3735 1.39024C42.8624 1.96341 42.5785 3.17073 42.5785 3.17073V3.45122H57.4338ZM32.0162 0.0121951H28.8021V3.45122H32.0162V0.0121951ZM42.5444 0.0121951H39.3417V3.45122H42.5444V0.0121951ZM42.5444 4.69512L39.3871 4.4878V8.47561C39.3871 8.47561 39.3757 9.62195 38.3422 9.62195H32.9361C32.9361 9.62195 32.0162 9.53659 32.0162 8.4878V3.95122L28.8362 3.70732V9.81707C29.3472 12.7439 31.8118 12.9756 31.8118 12.9756C31.8118 12.9756 32.0616 12.9878 32.1071 13H39.4325C39.4325 13 42.5671 12.7317 42.5671 9.48781L42.5444 4.69512ZM10.8689 12.9756H25.8833C28.4954 12.4146 28.768 9.85366 28.768 9.85366C28.8929 9.09756 28.8248 8.47561 28.8248 8.47561C28.7453 7.96341 27.8367 5.69512 25.8833 5.5C24.7135 5.37805 14.2988 4.4878 14.2988 4.4878C14.5033 5.60976 14.9689 6.18293 15.2869 6.5C16.0138 7.2439 17.1609 7.46341 17.1609 7.46341C17.4334 7.48781 25.1905 8.18293 25.1905 8.18293C25.4403 8.19512 25.906 8.26829 25.8946 8.92683C25.8946 9.01219 25.8265 9.58537 25.2359 9.58537H14.0035V4.46341L10.8803 4.21951C10.8689 4.21951 10.8689 12.9756 10.8689 12.9756ZM42.5671 13H54.0607C56.9454 12.8171 57.3543 9.87805 57.3543 9.87805C57.4565 9.10976 57.377 8.47561 57.377 8.47561C57.2975 7.78049 56.3776 5.68293 54.4128 5.47561C53.2543 5.35366 42.7716 4.69512 42.7716 4.69512C43.0782 5.85366 43.4984 6.20732 43.8164 6.52439C44.5433 7.28049 45.6222 7.45122 45.6222 7.45122C45.8948 7.47561 53.7313 8.18293 53.7313 8.18293C53.9812 8.19512 54.4923 8.21951 54.4923 8.87805C54.4923 9.07317 54.4014 9.28049 54.2878 9.39024C54.2878 9.39024 54.0153 9.54878 53.7541 9.54878H42.6012L42.5671 13Z"/>
</svg>
