<svg width="424" height="61" viewBox="0 0 424 61" fill="none" xmlns="http://www.w3.org/2000/svg">
<path d="M136.717 22.3099C134.86 24.8209 131.772 29.1911 129.89 31.7264C128.925 33.0302 127.212 35.3722 132.93 35.3722C138.985 35.3722 163.11 35.3722 163.11 35.3722C163.11 35.3722 167.984 28.7565 172.061 23.2032C177.61 15.6942 172.519 0 152.688 0C134.932 0 74.5709 0 74.5709 0L61.0367 18.4225C61.0367 18.4225 131.265 18.4225 134.86 18.4225C138.575 18.4225 138.527 19.8471 136.717 22.3099ZM114.522 39.9356C108.78 39.9356 110.517 37.5694 111.482 36.2897C113.364 33.7304 116.525 29.4326 118.382 26.8974C120.216 24.4346 120.264 23.0101 116.525 23.0101C112.93 23.0101 82.7494 23.0101 82.7494 23.0101L55.5362 60C55.5362 60 104.124 60 121.88 60C143.786 60 155.993 45.0785 159.757 39.9356C159.757 39.9356 120.602 39.9356 114.522 39.9356ZM157.682 60H196.596L211.361 39.9115H172.447C172.423 39.9356 157.682 60 157.682 60ZM258.115 0L243.182 20.2817H225.812L240.721 0H201.807L175.776 35.3964H270.974L297.005 0H258.115ZM213.966 60H252.88L267.645 39.9356H228.731L213.966 60ZM0 47.8551V52.1288H54.2093L57.3456 47.8551H0ZM63.1597 39.9356H0V44.1851H60.0234L63.1597 39.9356ZM0 60H48.3951L51.5073 55.7505H0V60ZM366.872 52.1046H424V47.831H370.008L366.872 52.1046ZM361.082 60H424V55.7746H364.194L361.082 60ZM375.822 39.9356L372.686 44.2093H423.976V39.9356H375.822ZM324.87 35.3964L350.901 0H309.695C309.671 0 283.64 35.3964 283.64 35.3964H324.87ZM280.31 39.9356C280.31 39.9356 277.464 43.8229 276.089 45.7062C271.191 52.3219 275.534 60.0241 291.48 60.0241C309.912 60.0241 353.965 60.0241 353.965 60.0241L368.729 39.9598L280.31 39.9356Z" fill="white"/>
</svg>
