<svg width="94" height="70" viewBox="0 0 94 70" fill="none" xmlns="http://www.w3.org/2000/svg">
<path d="M81 55V49.6L74.42 49C74.14 48.06 73.78 47.18 73.32 46.34L77.4 41.12L72.88 36.6L67.66 40.68C66.82 40.22 65.92 39.86 65 39.58L64.2 33H57.8L57 39.58C56.06 39.86 55.18 40.22 54.34 40.68L49.12 36.6L44.6 41.12L48.68 46.34C48.22 47.18 47.86 48.06 47.58 49L41 49.6V55" stroke="#666666" stroke-miterlimit="10"/>
<path d="M67 55V53C67 49.68 64.32 47 61 47C57.68 47 55 49.68 55 53V55" stroke="#666666" stroke-miterlimit="10" stroke-linejoin="round"/>
<path d="M33 5C33 8.32 35.68 11 39 11C42.32 11 45 8.32 45 5" stroke="#666666" stroke-miterlimit="10" stroke-linejoin="round"/>
<path d="M7 55V5C7 2.72 8.8 1 11 1H83C85.2 1 87 2.72 87 5V55" stroke="#666666" stroke-miterlimit="10"/>
<path d="M93 59H57L55 61H41L39 59H1V61C1 65.42 4.58 69 9 69H85C89.42 69 93 65.42 93 61V59Z" stroke="#666666" stroke-miterlimit="10"/>
<path d="M15 5V11H23.52C23.9 12.46 24.48 13.84 25.22 15.12L19.2 21.14L24.86 26.8L30.88 20.78C32.16 21.54 33.54 22.1 35 22.48V31H43V22.48C44.46 22.1 45.84 21.52 47.12 20.78L53.14 26.8L58.8 21.14L52.78 15.12C53.54 13.84 54.1 12.46 54.48 11H63V5" stroke="#D43C38" stroke-miterlimit="10"/>
</svg>
